<svg xmlns="http://www.w3.org/2000/svg" viewBox="4902 6536 74.625 84.699"><defs><style>.a{fill:#ffa861;}</style></defs><g transform="translate(4902 6536)"><path class="a" d="M39.669,83.669c-2.645-1.14-5.152-3.078-5.244-2.964h0a8.018,8.018,0,0,1-6.839,3.625c-6.839,0-27.586.023-27.586,0,0-2.713,23.026-5.084,27.586-8.481s6.839-9.963,6.839-9.963c.433-16.574,0-53.849,0-53.849h0V0s3.557,3.055,3.557,6.11a4.987,4.987,0,0,1-.342,1.733l5.289-5.289s.365,4.674-1.8,6.839c-.091.091-.205.182-.3.274a7.875,7.875,0,0,1,3.192.935c2.485,1.482,3.6,4.628,4.765,5.358s2.736-.228,3.876.912.707,3.192-1.71,4.1-7.774.205-10.6.752a22.992,22.992,0,0,0,1.6,7.683c1.733,3.6,5.791,9.188,10.533,14.568l5.266-7.455h-.023l4.012-5.677s.821,2.508-.205,3.944a3.422,3.422,0,0,1-1.208.98L64.929,34.4a6.38,6.38,0,0,1-2.622,2.873c.091.046.16.068.251.114,1.619.912,2.075,3.169,2.85,3.648.752.456,1.55.114,2.28.456.912.41.524,2.143-.524,2.371-.912.182-7.227.182-8.367.844s-1.824,2.257-2.189,3.693a21.531,21.531,0,0,1,6.748,16.141c0,9.119-8.344,14.135-8.344,14.135,5.654-.114,11.422-.205,14.728-.205,6.383,0,5.266,5.517,3.557,6.155s-15.845-3.237-24.508-.958C47.055,84.1,43.134,85.151,39.669,83.669Z"/></g></svg>