<svg xmlns="http://www.w3.org/2000/svg" width="240.12" height="240.12" viewBox="0 0 240.12 240.12"><defs><style>.a{fill:#522e91;}.b{fill:#fff;}</style></defs><g transform="translate(-2006.37 -490.33)"><circle class="a" cx="120.06" cy="120.06" r="120.06" transform="translate(2006.37 490.33)"/><path class="b" d="M2162.7,635.07c2.72,0,4.3,1.54,4.3,3.78a3.21,3.21,0,0,1-2.16,3.12,3.51,3.51,0,0,1,2.62,3.46c0,2.24-1.76,3.82-4.36,3.82h-4.49V635.07Zm.32,6.46a2.56,2.56,0,0,0,2.7-2.6c0-1.68-1.16-2.74-3.14-2.74h-2.7v5.34Zm0,6.6c1.94,0,3.2-1.08,3.2-2.78a2.7,2.7,0,0,0-2.94-2.72h-3.36v5.5Z" transform="translate(-114.57 -91.06)"/><path class="b" d="M2170.57,653.05l2.39-5-4.07-8.3h1.34l3.35,7,3.16-7h1.32l-6.18,13.34Z" transform="translate(-114.57 -91.06)"/><path class="b" d="M2184.75,653.05V639.71h1.18v1.9a3.79,3.79,0,0,1,3.49-2.16c2.7,0,4.32,2.2,4.32,5s-1.68,5-4.36,5a3.75,3.75,0,0,1-3.43-2.06v5.6Zm4.47-12.52c-2,0-3.29,1.72-3.29,3.94s1.31,4,3.29,4,3.32-1.72,3.32-4-1.32-3.94-3.32-3.94Z" transform="translate(-114.57 -91.06)"/><path class="b" d="M2201.16,641a3.331,3.331,0,0,0-.84-.1c-1.63,0-2.83,1-2.83,3.22v5.18h-1.2v-9.54h1.18v1.78a3.05,3.05,0,0,1,3-1.9,2.259,2.259,0,0,1,.74.1Z" transform="translate(-114.57 -91.06)"/><path class="b" d="M2202.09,644.49a4.71,4.71,0,1,1,1.286,3.534,4.75,4.75,0,0,1-1.286-3.534Zm4.75,3.94c1.88,0,3.52-1.46,3.52-3.94s-1.64-3.94-3.52-3.94-3.53,1.44-3.53,3.94a3.61,3.61,0,0,0,3.53,3.94Z" transform="translate(-114.57 -91.06)"/><path class="b" d="M2217.79,649.25h-1.26l-3.78-9.54h1.36l3,8.18,3.09-8.18h1.34Z" transform="translate(-114.57 -91.06)"/><path class="b" d="M2224.35,634.75a1,1,0,1,1-1,1A1,1,0,0,1,2224.35,634.75Zm-.6,14.5v-9.54h1.2v9.54Z" transform="translate(-114.57 -91.06)"/><path class="b" d="M2235.24,647.37a3.541,3.541,0,0,1-3.35,2.14c-2.68,0-4.4-2.2-4.4-5s1.76-5,4.4-5a3.4,3.4,0,0,1,3.33,2.06v-6.7h1.2v12.62a13.535,13.535,0,0,0,.1,1.82h-1.18a10.346,10.346,0,0,1-.1-1.5Zm-3.25,1.06c2,0,3.25-1.72,3.25-4s-1.26-3.94-3.23-3.94-3.32,1.64-3.32,3.94,1.31,4,3.31,4Z" transform="translate(-114.57 -91.06)"/><path class="b" d="M2240.23,634.75a1,1,0,1,1-1,1A1,1,0,0,1,2240.23,634.75Zm-.6,14.5v-9.54h1.2v9.54Z" transform="translate(-114.57 -91.06)"/><path class="b" d="M2245.23,649.25H2244v-9.54h1.16v1.52a3.38,3.38,0,0,1,3.1-1.76,3.26,3.26,0,0,1,3.38,3.56v6.22h-1.2v-6a2.39,2.39,0,0,0-2.58-2.68,2.76,2.76,0,0,0-2.66,3Z" transform="translate(-114.57 -91.06)"/><path class="b" d="M2254.13,649.75l1.18-.28a3,3,0,0,0,3.06,2.76c2.5,0,3.24-1.68,3.24-3.66v-1.76a3.331,3.331,0,0,1-3.22,1.92,4.62,4.62,0,0,1,0-9.22,3.26,3.26,0,0,1,3.24,1.9v-1.7h1.18v8.84c0,2.22-.94,4.74-4.44,4.74A4.06,4.06,0,0,1,2254.13,649.75Zm7.54-5.64c0-2-1.24-3.56-3.12-3.56a3.26,3.26,0,0,0-3.2,3.56c0,2.08,1.28,3.58,3.2,3.58S2261.67,646.17,2261.67,644.11Z" transform="translate(-114.57 -91.06)"/><path class="b" d="M2157.49,669.29c0-1.62,1.12-2.56,2.86-2.82l2.55-.38c.82-.12,1-.48,1-.92a2.12,2.12,0,0,0-2.4-2.16,2.45,2.45,0,0,0-2.69,2.22l-1.12-.24a3.53,3.53,0,0,1,3.79-3c2.48,0,3.62,1.5,3.62,3.32v4.82a8.016,8.016,0,0,0,.14,1.64h-1.18a10.447,10.447,0,0,1-.12-1.64,3.63,3.63,0,0,1-3.33,1.88,2.83,2.83,0,0,1-3.12-2.72Zm6.41-1.44v-1.08a1.62,1.62,0,0,1-.7.24l-2.66.4c-1.13.16-1.83.78-1.83,1.82a1.84,1.84,0,0,0,2.05,1.74,3,3,0,0,0,3.14-3.12Z" transform="translate(-114.57 -91.06)"/><path class="b" d="M2178.64,663.29H2176v8.46h-1.2v-8.46H2170v8.46h-1.2v-8.46h-2v-1.08h2v-2a2.769,2.769,0,0,1,2.85-3.08,2.642,2.642,0,0,1,1.081.2v1.08a2.251,2.251,0,0,0-.9-.16c-1,0-1.83.5-1.83,2v1.92h4.77v-2a2.77,2.77,0,0,1,2.84-3.08,2.64,2.64,0,0,1,1.08.2v1.08a2.25,2.25,0,0,0-.9-.16c-1,0-1.82.5-1.82,2v1.92h2.66Z" transform="translate(-114.57 -91.06)"/><path class="b" d="M2179.61,667a4.72,4.72,0,1,1,1.29,3.531,4.75,4.75,0,0,1-1.29-3.531Zm4.75,3.94c1.88,0,3.52-1.46,3.52-3.94s-1.64-3.94-3.52-3.94-3.53,1.44-3.53,3.94a3.61,3.61,0,0,0,3.53,3.93Z" transform="translate(-114.57 -91.06)"/><path class="b" d="M2196.5,663.45a3.331,3.331,0,0,0-.84-.1c-1.62,0-2.83,1-2.83,3.22v5.18h-1.2v-9.54h1.18V664a3.06,3.06,0,0,1,3-1.9,2.258,2.258,0,0,1,.74.1Z" transform="translate(-114.57 -91.06)"/><path class="b" d="M2205.22,669.87a3.53,3.53,0,0,1-3.34,2.14c-2.69,0-4.41-2.2-4.41-5s1.76-5,4.41-5a3.39,3.39,0,0,1,3.32,2.06v-6.7h1.2v12.62a13.535,13.535,0,0,0,.1,1.82h-1.18a10.415,10.415,0,0,1-.1-1.5Zm-3.24,1.06c2,0,3.24-1.72,3.24-4S2204,663,2202,663s-3.33,1.64-3.33,3.94,1.33,3.99,3.33,3.99Z" transform="translate(-114.57 -91.06)"/><path class="b" d="M2208.91,669.29c0-1.62,1.12-2.56,2.86-2.82l2.55-.38c.82-.12,1-.48,1-.92a2.12,2.12,0,0,0-2.4-2.16,2.45,2.45,0,0,0-2.69,2.22l-1.12-.24a3.53,3.53,0,0,1,3.79-3c2.48,0,3.62,1.5,3.62,3.32v4.82a8.016,8.016,0,0,0,.14,1.64h-1.18a10.447,10.447,0,0,1-.12-1.64A3.63,3.63,0,0,1,2212,672a2.83,2.83,0,0,1-3.09-2.71Zm6.41-1.44v-1.08a1.62,1.62,0,0,1-.7.24l-2.67.4c-1.12.16-1.82.78-1.82,1.82a1.84,1.84,0,0,0,2,1.74,3,3,0,0,0,3.19-3.12Z" transform="translate(-114.57 -91.06)"/><path class="b" d="M2219.61,671.75V657.31h1.2v6.74a3.69,3.69,0,0,1,3.47-2.1c2.66,0,4.32,2.18,4.32,5s-1.7,5-4.36,5a3.73,3.73,0,0,1-3.45-2.12v1.86Zm7.79-4.78c0-2.3-1.34-3.94-3.3-3.94s-3.31,1.64-3.31,3.94,1.34,4,3.31,4,3.3-1.68,3.3-3.97Z" transform="translate(-114.57 -91.06)"/><path class="b" d="M2231.15,671.75V657.31h1.2v14.44Z" transform="translate(-114.57 -91.06)"/><path class="b" d="M2243.72,669.05a4.25,4.25,0,0,1-4.19,3c-2.52,0-4.64-1.86-4.64-5.06,0-3,2-5,4.42-5,2.83,0,4.45,2,4.47,4.82a3.228,3.228,0,0,1,0,.44h-7.65v.08a3.44,3.44,0,0,0,3.42,3.64,3.1,3.1,0,0,0,3.13-2.26Zm-1.2-2.84a3.051,3.051,0,0,0-3.19-3.18,3.24,3.24,0,0,0-3.18,3.18Z" transform="translate(-114.57 -91.06)"/><path class="b" d="M2258.51,669.87a3.53,3.53,0,0,1-3.34,2.14c-2.68,0-4.4-2.2-4.4-5s1.76-5,4.4-5a3.39,3.39,0,0,1,3.32,2.06v-6.7h1.2v12.62a13.535,13.535,0,0,0,.1,1.82h-1.18a10.345,10.345,0,0,1-.1-1.5Zm-3.24,1.06c2,0,3.24-1.72,3.24-4s-1.26-3.94-3.22-3.94S2252,664.67,2252,667,2253.25,670.93,2255.27,670.93Z" transform="translate(-114.57 -91.06)"/><path class="b" d="M2267.77,663.45a3.331,3.331,0,0,0-.84-.1c-1.62,0-2.82,1-2.82,3.22v5.18h-1.2v-9.54h1.18V664a3,3,0,0,1,2.94-1.9,2.259,2.259,0,0,1,.74.1Z" transform="translate(-114.57 -91.06)"/><path class="b" d="M2273.09,672c-2.42,0-3.56-1.8-3.56-3.8v-6h1.2V668c0,1.52.7,2.92,2.58,2.92a2.68,2.68,0,0,0,2.7-2.9V662.2h1.2v7.72a13.709,13.709,0,0,0,.12,1.82h-1.14a8.181,8.181,0,0,1-.1-1.34v-.14A3.24,3.24,0,0,1,2273.09,672Z" transform="translate(-114.57 -91.06)"/><path class="b" d="M2279.79,672.25,2281,672a3,3,0,0,0,3.06,2.76c2.5,0,3.24-1.68,3.24-3.66v-1.76a3.33,3.33,0,0,1-3.22,1.92,4.62,4.62,0,0,1,0-9.22,3.26,3.26,0,0,1,3.24,1.9v-1.7h1.18v8.84c0,2.22-.94,4.74-4.44,4.74A4.06,4.06,0,0,1,2279.79,672.25Zm7.54-5.64c0-2-1.24-3.56-3.12-3.56a3.26,3.26,0,0,0-3.2,3.56c0,2.08,1.28,3.58,3.2,3.58S2287.33,668.67,2287.33,666.61Z" transform="translate(-114.57 -91.06)"/><path class="b" d="M2292,668.87a2.45,2.45,0,0,0,2.62,2.1,1.9,1.9,0,0,0,2.12-1.7c0-.88-.6-1.36-1.62-1.6l-1.54-.36a2.6,2.6,0,0,1-2.34-2.54,3.06,3.06,0,0,1,3.22-2.8,3.19,3.19,0,0,1,3.42,2.46l-1.06.4a2.18,2.18,0,0,0-2.36-1.82,1.87,1.87,0,0,0-2,1.68c0,.82.52,1.3,1.5,1.52l1.52.34c1.58.36,2.48,1.26,2.48,2.64a3.035,3.035,0,0,1-3.32,2.82,3.46,3.46,0,0,1-3.7-2.76Z" transform="translate(-114.57 -91.06)"/><path class="b" d="M2301.19,669.79c.62,0,1.18.48,1.18,1.42a3.37,3.37,0,0,1-2.38,3.48V674a2.4,2.4,0,0,0,1.5-2.22.58.58,0,0,1-.38.1,1.046,1.046,0,1,1,.08-2.09Z" transform="translate(-114.57 -91.06)"/><path class="b" d="M2158.61,694.25V680.07H2163c3.6,0,6.74,2.46,6.74,7.12s-3.18,7.06-6.78,7.06Zm4.35-1.12c2.94,0,5.52-2,5.52-5.94s-2.54-6-5.48-6h-3.12v11.94Z" transform="translate(-114.57 -91.06)"/><path class="b" d="M2177.18,686a3.333,3.333,0,0,0-.84-.1c-1.63,0-2.83,1-2.83,3.22v5.18h-1.2v-9.54h1.18v1.78a3.05,3.05,0,0,1,3-1.9,2.261,2.261,0,0,1,.74.1Z" transform="translate(-114.57 -91.06)"/><path class="b" d="M2178.71,692.23a1.055,1.055,0,1,1-1.04,1.06,1,1,0,0,1,1.04-1.06Z" transform="translate(-114.57 -91.06)"/><path class="b" d="M2192.45,688.11h-3v6.14h-1.28V680.07h4.94a4,4,0,0,1,4.23,4,3.85,3.85,0,0,1-3.55,3.92l3.53,6.22h-1.48Zm.5-1.14a2.89,2.89,0,1,0,0-5.76h-3.46V687Z" transform="translate(-114.57 -91.06)"/><path class="b" d="M2207.68,691.55a4.25,4.25,0,0,1-4.19,3c-2.52,0-4.64-1.86-4.64-5.06,0-3,2-5,4.42-5,2.82,0,4.45,2,4.47,4.82a3.228,3.228,0,0,1,0,.44h-7.65v.08a3.44,3.44,0,0,0,3.42,3.64,3.1,3.1,0,0,0,3.13-2.26Zm-1.2-2.84a3.051,3.051,0,0,0-3.19-3.18,3.24,3.24,0,0,0-3.18,3.18Z" transform="translate(-114.57 -91.06)"/><path class="b" d="M2217.29,692.37a3.53,3.53,0,0,1-3.34,2.14c-2.68,0-4.4-2.2-4.4-5s1.76-5,4.4-5a3.39,3.39,0,0,1,3.32,2.06v-6.7h1.21v12.62a13.535,13.535,0,0,0,.1,1.82h-1.18a8.767,8.767,0,0,1-.11-1.5Zm-3.24,1.06c2,0,3.24-1.72,3.24-4s-1.26-3.94-3.22-3.94-3.32,1.64-3.32,3.94S2212,693.43,2214.05,693.43Z" transform="translate(-114.57 -91.06)"/><path class="b" d="M2228.77,692.37a3.53,3.53,0,0,1-3.34,2.14c-2.68,0-4.4-2.2-4.4-5s1.76-5,4.4-5a3.39,3.39,0,0,1,3.32,2.06v-6.7h1.2v12.62a13.5,13.5,0,0,0,.1,1.82h-1.18a10.347,10.347,0,0,1-.1-1.5Zm-3.24,1.06c2,0,3.24-1.72,3.24-4s-1.26-3.94-3.22-3.94-3.32,1.64-3.32,3.94S2223.51,693.43,2225.53,693.43Z" transform="translate(-114.57 -91.06)"/><path class="b" d="M2233.77,698.05l2.38-5-4.06-8.3h1.34l3.34,7,3.16-7h1.32l-6.18,13.34Z" transform="translate(-114.57 -91.06)"/><path class="b" d="M2244.07,679.93a1.18,1.18,0,0,1,1.12,1.34,3.179,3.179,0,0,1-2.26,3.28v-.72a2.2,2.2,0,0,0,1.42-2.08.511.511,0,0,1-.36.1.92.92,0,0,1-.92-1A1,1,0,0,1,2244.07,679.93Z" transform="translate(-114.57 -91.06)"/><path class="b" d="M2247.47,691.37a2.45,2.45,0,0,0,2.62,2.1,1.9,1.9,0,0,0,2.12-1.7c0-.88-.6-1.36-1.62-1.6l-1.54-.36a2.6,2.6,0,0,1-2.34-2.54,3.06,3.06,0,0,1,3.22-2.8,3.19,3.19,0,0,1,3.42,2.46l-1.06.4a2.18,2.18,0,0,0-2.36-1.82,1.87,1.87,0,0,0-2,1.68c0,.82.52,1.3,1.5,1.52l1.52.34c1.58.36,2.48,1.26,2.48,2.64a3.035,3.035,0,0,1-3.32,2.82,3.46,3.46,0,0,1-3.7-2.76Z" transform="translate(-114.57 -91.06)"/><path class="b" d="M2269.29,691.55a4.249,4.249,0,0,1-4.18,3c-2.52,0-4.64-1.86-4.64-5.06,0-3,2-5,4.42-5,2.82,0,4.44,2,4.46,4.82a3.228,3.228,0,0,1,0,.44h-7.64v.08a3.44,3.44,0,0,0,3.42,3.64,3.08,3.08,0,0,0,3.12-2.26Zm-1.2-2.84a3,3,0,0,0-3.18-3.18,3.24,3.24,0,0,0-3.18,3.18Z" transform="translate(-114.57 -91.06)"/><path class="b" d="M2273,694.25h-1.2v-9.54h1.2v1.52a3.38,3.38,0,0,1,3.1-1.76,3.26,3.26,0,0,1,3.38,3.56v6.22h-1.2v-6a2.39,2.39,0,0,0-2.58-2.68,2.76,2.76,0,0,0-2.66,3Z" transform="translate(-114.57 -91.06)"/><path class="b" d="M2282.87,691.37a2.45,2.45,0,0,0,2.62,2.1,1.9,1.9,0,0,0,2.12-1.7c0-.88-.6-1.36-1.62-1.6l-1.54-.36a2.6,2.6,0,0,1-2.34-2.54,3.06,3.06,0,0,1,3.22-2.8,3.19,3.19,0,0,1,3.42,2.46l-1.06.4a2.18,2.18,0,0,0-2.36-1.82,1.87,1.87,0,0,0-2,1.68c0,.82.52,1.3,1.5,1.52l1.52.34c1.58.36,2.48,1.26,2.48,2.64a3.035,3.035,0,0,1-3.32,2.82,3.46,3.46,0,0,1-3.7-2.76Z" transform="translate(-114.57 -91.06)"/><path class="b" d="M2294.79,694.51c-2.42,0-3.56-1.8-3.56-3.8v-6h1.2v5.8c0,1.52.7,2.92,2.58,2.92a2.68,2.68,0,0,0,2.7-2.9v-5.82h1.2v7.72a13.749,13.749,0,0,0,.12,1.82h-1.14a8.181,8.181,0,0,1-.1-1.34v-.14A3.24,3.24,0,0,1,2294.79,694.51Z" transform="translate(-114.57 -91.06)"/><path class="b" d="M2307,686a3.331,3.331,0,0,0-.84-.1c-1.62,0-2.82,1-2.82,3.22v5.18h-1.2v-9.54h1.18v1.78a3,3,0,0,1,2.94-1.9,2.257,2.257,0,0,1,.74.1Z" transform="translate(-114.57 -91.06)"/><path class="b" d="M2316.75,691.55a4.249,4.249,0,0,1-4.18,3c-2.52,0-4.64-1.86-4.64-5.06,0-3,2-5,4.42-5,2.82,0,4.44,2,4.46,4.82a3.228,3.228,0,0,1,0,.44h-7.64v.08a3.44,3.44,0,0,0,3.42,3.64,3.08,3.08,0,0,0,3.12-2.26Zm-1.2-2.84a3,3,0,0,0-3.18-3.18,3.24,3.24,0,0,0-3.18,3.18Z" transform="translate(-114.57 -91.06)"/><path class="b" d="M2319.59,691.37a2.45,2.45,0,0,0,2.62,2.1,1.9,1.9,0,0,0,2.12-1.7c0-.88-.6-1.36-1.62-1.6l-1.54-.36a2.6,2.6,0,0,1-2.34-2.54,3.06,3.06,0,0,1,3.22-2.8,3.19,3.19,0,0,1,3.42,2.46l-1.06.4a2.18,2.18,0,0,0-2.36-1.82,1.87,1.87,0,0,0-2,1.68c0,.82.52,1.3,1.5,1.52l1.52.34c1.58.36,2.48,1.26,2.48,2.64a3.035,3.035,0,0,1-3.32,2.82,3.46,3.46,0,0,1-3.7-2.76Z" transform="translate(-114.57 -91.06)"/><path class="b" d="M2160.14,707.21h2.48v1.08h-2.48v5.76c0,1.16.54,1.72,1.62,1.72a2.35,2.35,0,0,0,.86-.16v1.06a3.152,3.152,0,0,1-1.18.18,2.37,2.37,0,0,1-2.51-2.68v-5.88h-2v-1.08h.72c.94,0,1.34-.42,1.34-1.4v-1.62h1.17Z" transform="translate(-114.57 -91.06)"/><path class="b" d="M2166,716.75h-1.2V702.31h1.2v6.4a3.38,3.38,0,0,1,3-1.71,3.25,3.25,0,0,1,3.38,3.56v6.24h-1.2v-6a2.41,2.41,0,0,0-2.58-2.68,2.79,2.79,0,0,0-2.67,3Z" transform="translate(-114.57 -91.06)"/><path class="b" d="M2174.79,714.29c0-1.62,1.12-2.56,2.86-2.82l2.55-.38c.82-.12,1-.48,1-.92a2.12,2.12,0,0,0-2.41-2.16,2.45,2.45,0,0,0-2.68,2.22L2175,710a3.53,3.53,0,0,1,3.78-3c2.49,0,3.63,1.5,3.63,3.32v4.82a8.016,8.016,0,0,0,.14,1.64h-1.18a10.506,10.506,0,0,1-.12-1.64,3.63,3.63,0,0,1-3.33,1.88,2.83,2.83,0,0,1-3.13-2.73Zm6.41-1.44v-1.08a1.62,1.62,0,0,1-.7.24l-2.67.4c-1.12.16-1.82.78-1.82,1.82a1.84,1.84,0,0,0,2,1.74,3,3,0,0,0,3.19-3.12Z" transform="translate(-114.57 -91.06)"/><path class="b" d="M2187.33,707.21h2.49v1.08h-2.49v5.76c0,1.16.54,1.72,1.63,1.72a2.35,2.35,0,0,0,.86-.16v1.06a3.152,3.152,0,0,1-1.18.18,2.37,2.37,0,0,1-2.51-2.68v-5.88h-2v-1.08h.72c.94,0,1.34-.42,1.34-1.4v-1.62h1.16Z" transform="translate(-114.57 -91.06)"/><path class="b" d="M2197.13,720.55V707.21h1.18v1.9a3.76,3.76,0,0,1,3.48-2.16c2.71,0,4.33,2.2,4.33,5s-1.68,5-4.37,5a3.73,3.73,0,0,1-3.42-2.06v5.6Zm4.46-12.52c-2,0-3.28,1.72-3.28,3.94s1.3,4,3.28,4,3.33-1.72,3.33-4-1.32-3.97-3.33-3.97Z" transform="translate(-114.57 -91.06)"/><path class="b" d="M2208,714.29c0-1.62,1.12-2.56,2.86-2.82l2.54-.38c.83-.12,1-.48,1-.92A2.13,2.13,0,0,0,2212,708a2.45,2.45,0,0,0-2.68,2.22l-1.12-.24a3.53,3.53,0,0,1,3.78-3c2.49,0,3.63,1.5,3.63,3.32v4.82a8,8,0,0,0,.14,1.64h-1.18a10.447,10.447,0,0,1-.12-1.64,3.65,3.65,0,0,1-3.33,1.88,2.83,2.83,0,0,1-3.12-2.71Zm6.41-1.44v-1.08a1.747,1.747,0,0,1-.71.24l-2.66.4c-1.12.16-1.82.78-1.82,1.82a1.84,1.84,0,0,0,2,1.74,3,3,0,0,0,3.16-3.12Z" transform="translate(-114.57 -91.06)"/><path class="b" d="M2220.51,707.21H2223v1.08h-2.48v5.76c0,1.16.54,1.72,1.62,1.72a2.349,2.349,0,0,0,.86-.16v1.06a3.152,3.152,0,0,1-1.18.18,2.37,2.37,0,0,1-2.5-2.68v-5.88h-2v-1.08h.72c.94,0,1.34-.42,1.34-1.4v-1.62h1.16Z" transform="translate(-114.57 -91.06)"/><path class="b" d="M2225.73,702.25a1,1,0,1,1-1,1A1,1,0,0,1,2225.73,702.25Zm-.6,14.5v-9.54h1.2v9.54Z" transform="translate(-114.57 -91.06)"/><path class="b" d="M2237.7,714.05a4.259,4.259,0,0,1-4.19,3c-2.52,0-4.64-1.86-4.64-5.06,0-3,2-5,4.42-5,2.82,0,4.45,2,4.47,4.82a3.227,3.227,0,0,1,0,.44h-7.65v.08a3.44,3.44,0,0,0,3.42,3.64,3.1,3.1,0,0,0,3.129-2.26Zm-1.21-2.84a3,3,0,0,0-3.18-3.18,3.24,3.24,0,0,0-3.18,3.18Z" transform="translate(-114.57 -91.06)"/><path class="b" d="M2241.43,716.75h-1.2v-9.54h1.16v1.52a3.38,3.38,0,0,1,3.1-1.76,3.26,3.26,0,0,1,3.38,3.56v6.22h-1.2v-6a2.39,2.39,0,0,0-2.58-2.68,2.76,2.76,0,0,0-2.66,3Z" transform="translate(-114.57 -91.06)"/><path class="b" d="M2252.81,707.21h2.48v1.08h-2.48v5.76c0,1.16.54,1.72,1.62,1.72a2.35,2.35,0,0,0,.86-.16v1.06a3.151,3.151,0,0,1-1.18.18,2.37,2.37,0,0,1-2.5-2.68v-5.88h-2v-1.08h.72c.94,0,1.34-.42,1.34-1.4v-1.62h1.16Z" transform="translate(-114.57 -91.06)"/><path class="b" d="M2257.73,713.87a2.45,2.45,0,0,0,2.62,2.1,1.9,1.9,0,0,0,2.12-1.7c0-.88-.6-1.36-1.62-1.6l-1.54-.36a2.6,2.6,0,0,1-2.34-2.54,3.06,3.06,0,0,1,3.22-2.8,3.19,3.19,0,0,1,3.42,2.46l-1.06.4a2.18,2.18,0,0,0-2.36-1.82,1.87,1.87,0,0,0-2,1.68c0,.82.52,1.3,1.5,1.52l1.52.34c1.58.36,2.48,1.26,2.48,2.64a3.035,3.035,0,0,1-3.32,2.82,3.46,3.46,0,0,1-3.7-2.76Z" transform="translate(-114.57 -91.06)"/><path class="b" d="M2270.69,714.29c0-1.62,1.12-2.56,2.86-2.82l2.54-.38c.82-.12,1-.48,1-.92a2.12,2.12,0,0,0-2.4-2.16,2.45,2.45,0,0,0-2.68,2.22l-1.12-.24a3.53,3.53,0,0,1,3.78-3c2.48,0,3.62,1.5,3.62,3.32v4.82a8.016,8.016,0,0,0,.14,1.64h-1.18a10.506,10.506,0,0,1-.12-1.64,3.62,3.62,0,0,1-3.32,1.88,2.83,2.83,0,0,1-3.12-2.72Zm6.4-1.44v-1.08a1.621,1.621,0,0,1-.7.24l-2.66.4c-1.12.16-1.82.78-1.82,1.82a1.84,1.84,0,0,0,2,1.74,3,3,0,0,0,3.18-3.12Z" transform="translate(-114.57 -91.06)"/><path class="b" d="M2286.25,708.45a3.333,3.333,0,0,0-.84-.1c-1.62,0-2.82,1-2.82,3.22v5.18h-1.2v-9.54h1.18V709a3,3,0,0,1,2.94-1.9,2.259,2.259,0,0,1,.74.1Z" transform="translate(-114.57 -91.06)"/><path class="b" d="M2287.19,712a4.71,4.71,0,1,1,1.283,3.531A4.75,4.75,0,0,1,2287.19,712Zm4.74,3.94c1.88,0,3.52-1.46,3.52-3.94s-1.64-3.94-3.52-3.94-3.52,1.44-3.52,3.94,1.64,3.93,3.52,3.93Z" transform="translate(-114.57 -91.06)"/><path class="b" d="M2302.65,717c-2.42,0-3.56-1.8-3.56-3.8v-6h1.2V713c0,1.52.7,2.92,2.58,2.92a2.68,2.68,0,0,0,2.7-2.9V707.2h1.2v7.72a13.709,13.709,0,0,0,.12,1.82h-1.14a8.236,8.236,0,0,1-.1-1.34v-.14A3.24,3.24,0,0,1,2302.65,717Z" transform="translate(-114.57 -91.06)"/><path class="b" d="M2311.19,716.75H2310v-9.54h1.16v1.52a3.38,3.38,0,0,1,3.1-1.76,3.26,3.26,0,0,1,3.38,3.56v6.22h-1.2v-6a2.39,2.39,0,0,0-2.58-2.68,2.76,2.76,0,0,0-2.66,3Z" transform="translate(-114.57 -91.06)"/><path class="b" d="M2327.81,714.87a3.53,3.53,0,0,1-3.34,2.14c-2.68,0-4.4-2.2-4.4-5s1.76-5,4.4-5a3.39,3.39,0,0,1,3.32,2.06v-6.7h1.2v12.62a13.535,13.535,0,0,0,.1,1.82h-1.18a10.381,10.381,0,0,1-.1-1.5Zm-3.24,1.06c2,0,3.24-1.72,3.24-4s-1.26-3.94-3.22-3.94-3.32,1.64-3.32,3.94S2322.55,715.93,2324.57,715.93Z" transform="translate(-114.57 -91.06)"/><path class="b" d="M2160.14,729.71h2.48v1.08h-2.48v5.76c0,1.16.54,1.72,1.62,1.72a2.35,2.35,0,0,0,.86-.16v1.06a3.152,3.152,0,0,1-1.18.18,2.37,2.37,0,0,1-2.51-2.68v-5.88h-2v-1.08h.72c.94,0,1.34-.42,1.34-1.4v-1.62h1.17Z" transform="translate(-114.57 -91.06)"/><path class="b" d="M2166,739.25h-1.2V724.81h1.2v6.4a3.379,3.379,0,0,1,3.07-1.76,3.25,3.25,0,0,1,3.38,3.56v6.24h-1.2v-6a2.41,2.41,0,0,0-2.58-2.68,2.79,2.79,0,0,0-2.67,3Z" transform="translate(-114.57 -91.06)"/><path class="b" d="M2183.66,736.55a4.251,4.251,0,0,1-4.18,3c-2.53,0-4.65-1.86-4.65-5.06,0-3,2-5,4.42-5,2.83,0,4.45,2,4.47,4.82a3.267,3.267,0,0,1,0,.44h-7.65v.08a3.44,3.44,0,0,0,3.43,3.64,3.08,3.08,0,0,0,3.12-2.26Zm-1.2-2.84a3,3,0,0,0-3.19-3.18,3.24,3.24,0,0,0-3.18,3.18Z" transform="translate(-114.57 -91.06)"/><path class="b" d="M2198.05,729.71l2.85,8.06,2.5-8.06h1.3l-3.12,9.54h-1.34l-2.85-8.08-2.84,8.08h-1.34l-3.16-9.54h1.32l2.54,8.06,2.84-8.06Z" transform="translate(-114.57 -91.06)"/><path class="b" d="M2206,734.49a4.71,4.71,0,1,1,1.283,3.531A4.75,4.75,0,0,1,2206,734.49Zm4.74,3.94a3.61,3.61,0,0,0,3.53-3.94c0-2.5-1.65-3.94-3.53-3.94s-3.52,1.44-3.52,3.94a3.614,3.614,0,0,0,3.55,3.94Z" transform="translate(-114.57 -91.06)"/><path class="b" d="M2222.91,731a3.331,3.331,0,0,0-.84-.1c-1.62,0-2.82,1-2.82,3.22v5.18h-1.2v-9.54h1.18v1.78a3,3,0,0,1,2.94-1.9,2.26,2.26,0,0,1,.74.1Z" transform="translate(-114.57 -91.06)"/><path class="b" d="M2224.79,739.25V724.81h1.2v14.44Z" transform="translate(-114.57 -91.06)"/><path class="b" d="M2236.27,737.37a3.53,3.53,0,0,1-3.34,2.14c-2.68,0-4.4-2.2-4.4-5s1.76-5,4.4-5a3.39,3.39,0,0,1,3.32,2.06v-6.7h1.2v12.62a13.535,13.535,0,0,0,.1,1.82h-1.18a10.381,10.381,0,0,1-.1-1.5Zm-3.24,1.06c2,0,3.24-1.72,3.24-4s-1.26-3.94-3.22-3.94-3.32,1.64-3.32,3.94,1.27,4,3.27,4Z" transform="translate(-114.57 -91.06)"/><path class="b" d="M2245.21,739.75l1.18-.28a3,3,0,0,0,3.06,2.76c2.5,0,3.24-1.68,3.24-3.66v-1.76a3.33,3.33,0,0,1-3.22,1.92,4.62,4.62,0,0,1,0-9.22,3.26,3.26,0,0,1,3.24,1.9v-1.7h1.18v8.84c0,2.22-.94,4.74-4.44,4.74a4.06,4.06,0,0,1-4.24-3.54Zm7.54-5.64c0-2-1.24-3.56-3.12-3.56a3.26,3.26,0,0,0-3.2,3.56c0,2.08,1.28,3.58,3.2,3.58S2252.75,736.17,2252.75,734.11Z" transform="translate(-114.57 -91.06)"/><path class="b" d="M2265.25,736.55a4.25,4.25,0,0,1-4.18,3c-2.52,0-4.64-1.86-4.64-5.06,0-3,2-5,4.42-5,2.82,0,4.44,2,4.46,4.82a3.267,3.267,0,0,1,0,.44h-7.64v.08a3.44,3.44,0,0,0,3.42,3.64,3.08,3.08,0,0,0,3.12-2.26Zm-1.2-2.84a3,3,0,0,0-3.18-3.18,3.24,3.24,0,0,0-3.18,3.18Z" transform="translate(-114.57 -91.06)"/><path class="b" d="M2269.61,729.71h2.48v1.08h-2.48v5.76c0,1.16.54,1.72,1.62,1.72a2.349,2.349,0,0,0,.86-.16v1.06a3.152,3.152,0,0,1-1.18.18,2.37,2.37,0,0,1-2.5-2.68v-5.88h-2v-1.08h.72c.94,0,1.34-.42,1.34-1.4v-1.62h1.16Z" transform="translate(-114.57 -91.06)"/><path class="b" d="M2280.91,729.71h2.48v1.08h-2.48v5.76c0,1.16.54,1.72,1.62,1.72a2.35,2.35,0,0,0,.86-.16v1.06a3.149,3.149,0,0,1-1.18.18,2.37,2.37,0,0,1-2.5-2.68v-5.88h-2v-1.08h.72c.94,0,1.34-.42,1.34-1.4v-1.62h1.16Z" transform="translate(-114.57 -91.06)"/><path class="b" d="M2286.73,739.25h-1.2V724.81h1.2v6.4a3.38,3.38,0,0,1,3.06-1.76,3.25,3.25,0,0,1,3.38,3.56v6.24H2292v-6a2.41,2.41,0,0,0-2.58-2.68,2.79,2.79,0,0,0-2.66,3Z" transform="translate(-114.57 -91.06)"/><path class="b" d="M2304.43,736.55a4.25,4.25,0,0,1-4.18,3c-2.52,0-4.64-1.86-4.64-5.06,0-3,2-5,4.42-5,2.82,0,4.44,2,4.46,4.82a3.227,3.227,0,0,1,0,.44h-7.64v.08a3.44,3.44,0,0,0,3.42,3.64,3.08,3.08,0,0,0,3.12-2.26Zm-1.2-2.84a3,3,0,0,0-3.18-3.18,3.24,3.24,0,0,0-3.18,3.18Z" transform="translate(-114.57 -91.06)"/><path class="b" d="M2160.14,752.21h2.48v1.08h-2.48v5.76c0,1.16.54,1.72,1.62,1.72a2.352,2.352,0,0,0,.86-.16v1.06a3.15,3.15,0,0,1-1.18.18,2.37,2.37,0,0,1-2.51-2.68v-5.88h-2v-1.08h.72c.94,0,1.34-.42,1.34-1.4v-1.62h1.17Z" transform="translate(-114.57 -91.06)"/><path class="b" d="M2169.62,753.45a3.328,3.328,0,0,0-.84-.1c-1.63,0-2.83,1-2.83,3.22v5.18h-1.2v-9.54h1.18V754a3,3,0,0,1,3-1.9,2.261,2.261,0,0,1,.74.1Z" transform="translate(-114.57 -91.06)"/><path class="b" d="M2179.38,759.05a4.25,4.25,0,0,1-4.18,3c-2.53,0-4.65-1.86-4.65-5.06,0-3,2-5,4.43-5,2.82,0,4.44,2,4.46,4.82a3.267,3.267,0,0,1,0,.44h-7.65v.08a3.44,3.44,0,0,0,3.43,3.64,3.08,3.08,0,0,0,3.12-2.26Zm-1.2-2.84A3,3,0,0,0,2175,753a3.24,3.24,0,0,0-3.19,3.18Z" transform="translate(-114.57 -91.06)"/><path class="b" d="M2181.21,759.29c0-1.62,1.12-2.56,2.86-2.82l2.54-.38c.83-.12,1-.48,1-.92a2.12,2.12,0,0,0-2.41-2.16,2.45,2.45,0,0,0-2.68,2.22l-1.12-.24a3.53,3.53,0,0,1,3.78-3c2.49,0,3.63,1.5,3.63,3.32v4.82a8,8,0,0,0,.14,1.64h-1.18a10.476,10.476,0,0,1-.12-1.64,3.64,3.64,0,0,1-3.33,1.88,2.83,2.83,0,0,1-3.11-2.72Zm6.41-1.44v-1.08a1.622,1.622,0,0,1-.7.24l-2.67.4c-1.12.16-1.82.78-1.82,1.82a1.84,1.84,0,0,0,2,1.74,3,3,0,0,0,3.19-3.12Z" transform="translate(-114.57 -91.06)"/><path class="b" d="M2193.75,752.21h2.49v1.08h-2.49v5.76c0,1.16.54,1.72,1.63,1.72a2.35,2.35,0,0,0,.86-.16v1.06a3.169,3.169,0,0,1-1.19.18,2.37,2.37,0,0,1-2.5-2.68v-5.88h-2v-1.08h.72c.94,0,1.34-.42,1.34-1.4v-1.62h1.16Z" transform="translate(-114.57 -91.06)"/><path class="b" d="M2198.37,761.75v-9.54h1.18v1.58a3.24,3.24,0,0,1,3-1.84,3,3,0,0,1,3,2.16,3.39,3.39,0,0,1,3.28-2.16,3.21,3.21,0,0,1,3.3,3.48v6.32H2211v-6.18a2.34,2.34,0,0,0-2.44-2.56,2.72,2.72,0,0,0-2.66,2.88v5.86h-1.2v-6.18a2.33,2.33,0,0,0-2.45-2.56,2.71,2.71,0,0,0-2.66,2.88v5.86Z" transform="translate(-114.57 -91.06)"/><path class="b" d="M2223.44,759.05a4.25,4.25,0,0,1-4.19,3c-2.52,0-4.64-1.86-4.64-5.06,0-3,2-5,4.42-5,2.82,0,4.45,2,4.47,4.82a3.227,3.227,0,0,1,0,.44h-7.65v.08a3.44,3.44,0,0,0,3.42,3.64,3.1,3.1,0,0,0,3.13-2.26Zm-1.2-2.84a3.05,3.05,0,0,0-3.19-3.18,3.24,3.24,0,0,0-3.18,3.18Z" transform="translate(-114.57 -91.06)"/><path class="b" d="M2227.17,761.75H2226v-9.54h1.16v1.52a3.379,3.379,0,0,1,3.1-1.76,3.26,3.26,0,0,1,3.38,3.56v6.22h-1.2v-6a2.39,2.39,0,0,0-2.58-2.68,2.76,2.76,0,0,0-2.66,3Z" transform="translate(-114.57 -91.06)"/><path class="b" d="M2238.55,752.21H2241v1.08h-2.48v5.76c0,1.16.54,1.72,1.62,1.72a2.352,2.352,0,0,0,.86-.16v1.06a3.15,3.15,0,0,1-1.18.18,2.37,2.37,0,0,1-2.5-2.68v-5.88h-2v-1.08h.72c.94,0,1.34-.42,1.34-1.4v-1.62h1.16Z" transform="translate(-114.57 -91.06)"/><path class="b" d="M2249.85,752.21h2.48v1.08h-2.48v5.76c0,1.16.54,1.72,1.62,1.72a2.352,2.352,0,0,0,.86-.16v1.06a3.15,3.15,0,0,1-1.18.18,2.37,2.37,0,0,1-2.5-2.68v-5.88h-2v-1.08h.72c.94,0,1.34-.42,1.34-1.4v-1.62h1.16Z" transform="translate(-114.57 -91.06)"/><path class="b" d="M2255.67,761.75h-1.2V747.31h1.2v6.4a3.38,3.38,0,0,1,3.06-1.76,3.25,3.25,0,0,1,3.38,3.56v6.24h-1.2v-6a2.41,2.41,0,0,0-2.58-2.68,2.79,2.79,0,0,0-2.66,3Z" transform="translate(-114.57 -91.06)"/><path class="b" d="M2273.37,759.05a4.249,4.249,0,0,1-4.18,3c-2.52,0-4.64-1.86-4.64-5.06,0-3,2-5,4.42-5,2.82,0,4.44,2,4.46,4.82a3.227,3.227,0,0,1,0,.44h-7.64v.08a3.44,3.44,0,0,0,3.42,3.64,3.08,3.08,0,0,0,3.12-2.26Zm-1.2-2.84A3,3,0,0,0,2269,753a3.24,3.24,0,0,0-3.18,3.18Z" transform="translate(-114.57 -91.06)"/><path class="b" d="M2276.13,765.55l2.38-5-4.06-8.3h1.34l3.34,7,3.16-7h1.32l-6.18,13.34Z" transform="translate(-114.57 -91.06)"/><path class="b" d="M2291.51,761.75h-1.2v-9.54h1.16v1.52a3.38,3.38,0,0,1,3.1-1.76,3.26,3.26,0,0,1,3.38,3.56v6.22h-1.2v-6a2.39,2.39,0,0,0-2.58-2.68,2.76,2.76,0,0,0-2.66,3Z" transform="translate(-114.57 -91.06)"/><path class="b" d="M2309.21,759.05a4.25,4.25,0,0,1-4.18,3c-2.52,0-4.64-1.86-4.64-5.06,0-3,2-5,4.42-5,2.82,0,4.44,2,4.46,4.82a3.227,3.227,0,0,1,0,.44h-7.64v.08a3.44,3.44,0,0,0,3.42,3.64,3.08,3.08,0,0,0,3.12-2.26Zm-1.2-2.84a3,3,0,0,0-3.18-3.18,3.24,3.24,0,0,0-3.18,3.18Z" transform="translate(-114.57 -91.06)"/><path class="b" d="M2319.91,759.05a4.25,4.25,0,0,1-4.18,3c-2.52,0-4.64-1.86-4.64-5.06,0-3,2-5,4.42-5,2.82,0,4.44,2,4.46,4.82a3.227,3.227,0,0,1,0,.44h-7.64v.08a3.44,3.44,0,0,0,3.42,3.64,3.08,3.08,0,0,0,3.12-2.26Zm-1.2-2.84a3,3,0,0,0-3.18-3.18,3.24,3.24,0,0,0-3.18,3.18Z" transform="translate(-114.57 -91.06)"/><path class="b" d="M2329.53,759.87a3.53,3.53,0,0,1-3.34,2.14c-2.68,0-4.4-2.2-4.4-5s1.76-5,4.4-5a3.39,3.39,0,0,1,3.32,2.06v-6.7h1.2v12.62a13.535,13.535,0,0,0,.1,1.82h-1.18a10.347,10.347,0,0,1-.1-1.5Zm-3.24,1.06c2,0,3.24-1.72,3.24-4s-1.26-3.94-3.22-3.94S2323,754.67,2323,757,2324.27,760.93,2326.29,760.93Z" transform="translate(-114.57 -91.06)"/><path class="b" d="M2334.61,759.73a1.055,1.055,0,1,1-1.04,1.06,1,1,0,0,1,1.04-1.06Z" transform="translate(-114.57 -91.06)"/></g></svg>