<svg xmlns="http://www.w3.org/2000/svg" width="206.74" height="206.74" viewBox="0 0 206.74 206.74"><defs><style>.a{fill:#00b7f1;}.b{fill:#fff;}</style></defs><g transform="translate(-2038.06 -178.59)"><path class="a" d="M103.37,0A103.37,103.37,0,1,1,0,103.37,103.37,103.37,0,0,1,103.37,0Z" transform="translate(2038.06 178.59)"/><g transform="translate(218 27.02)"><path class="b" d="M1900.73,210.79h1.59l3,6.92,3-6.92h1.57v8.5h-1.16v-6.62l-2.9,6.62h-1.08l-2.88-6.62v6.62h-1.16Z" transform="translate(-47.57 -15.06)"/><path class="b" d="M1911.45,216.4a3,3,0,1,1,3,3.07,2.92,2.92,0,0,1-3-3.07Zm4.75,0a1.81,1.81,0,1,0-1.79,2.06,1.84,1.84,0,0,0,1.79-2.06Z" transform="translate(-47.57 -15.06)"/><path class="b" d="M1918.41,216.39a2.84,2.84,0,0,1,2.74-3,1.76,1.76,0,0,1,1.76,1v-3.73H1924v7.61a9.383,9.383,0,0,0,.06,1.07H1923a4.2,4.2,0,0,1-.06-.78v-.09a1.94,1.94,0,0,1-1.79,1,2.79,2.79,0,0,1-2.74-3.08Zm4.51,0c0-1.19-.62-2-1.65-2a1.779,1.779,0,0,0-1.7,2c0,1.16.61,2.06,1.69,2.06s1.66-.9,1.66-2.08Z" transform="translate(-47.57 -15.06)"/><path class="b" d="M1925.48,216.39a2.88,2.88,0,0,1,2.76-3,2.685,2.685,0,0,1,2.77,3,3.22,3.22,0,0,1,0,.36h-4.34a1.7,1.7,0,0,0,1.73,1.75,1.57,1.57,0,0,0,1.62-1.17l1,.34a2.62,2.62,0,0,1-2.6,1.82,2.88,2.88,0,0,1-2.94-3.1Zm4.36-.58a1.46,1.46,0,0,0-1.59-1.47,1.56,1.56,0,0,0-1.57,1.47Z" transform="translate(-47.57 -15.06)"/><path class="b" d="M1932.43,213.52h1.1v1a1.8,1.8,0,0,1,1.73-1.1,2.449,2.449,0,0,1,.37,0v1.2h-.49c-1,0-1.58.5-1.58,1.77v2.89h-1.13Z" transform="translate(-47.57 -15.06)"/><path class="b" d="M1936.79,213.52h1.1v.83a2.062,2.062,0,0,1,3.84,1.27v3.66h-1.13v-3.46c0-.81-.34-1.46-1.34-1.46s-1.35.71-1.35,1.59v3.33h-1.12Z" transform="translate(-47.57 -15.06)"/><path class="b" d="M1946.52,213.52h1.08v.77a2,2,0,0,1,1.75-.93,1.8,1.8,0,0,1,1.73,1.09,2.05,2.05,0,0,1,1.93-1.09,2,2,0,0,1,2,2.19v3.74h-1.12v-3.62a1.16,1.16,0,0,0-1.22-1.32,1.34,1.34,0,0,0-1.33,1.45v3.49h-1.13v-3.62a1.16,1.16,0,0,0-1.22-1.32,1.34,1.34,0,0,0-1.35,1.46v3.48h-1.11Z" transform="translate(-47.57 -15.06)"/><path class="b" d="M1956.38,216.39a2.88,2.88,0,0,1,2.76-3,2.685,2.685,0,0,1,2.77,3,3.191,3.191,0,0,1,0,.36h-4.34a1.7,1.7,0,0,0,1.73,1.75,1.57,1.57,0,0,0,1.62-1.17l1,.34a2.62,2.62,0,0,1-2.6,1.82,2.88,2.88,0,0,1-2.94-3.1Zm4.36-.58a1.46,1.46,0,0,0-1.59-1.47,1.56,1.56,0,0,0-1.57,1.47Z" transform="translate(-47.57 -15.06)"/><path class="b" d="M1963,216.39a2.83,2.83,0,0,1,2.73-3,1.76,1.76,0,0,1,1.76,1v-3.73h1.12v7.61a9.411,9.411,0,0,0,.06,1.07h-1.09a4.175,4.175,0,0,1-.06-.78v-.09a1.94,1.94,0,0,1-1.79,1,2.78,2.78,0,0,1-2.73-3.08Zm4.51,0c0-1.19-.63-2-1.66-2a1.779,1.779,0,0,0-1.7,2c0,1.16.61,2.06,1.69,2.06s1.62-.9,1.62-2.08Z" transform="translate(-47.57 -15.06)"/><path class="b" d="M1970.15,211.34a.81.81,0,1,1,.805.72.81.81,0,0,1-.805-.72Zm.25,2.18h1.11v5.77h-1.11Z" transform="translate(-47.57 -15.06)"/><path class="b" d="M1973,216.4a2.9,2.9,0,0,1,2.91-3.06,2.5,2.5,0,0,1,2.56,1.84l-1,.43a1.51,1.51,0,0,0-1.54-1.22,1.79,1.79,0,0,0-1.76,2,1.82,1.82,0,0,0,1.77,2,1.58,1.58,0,0,0,1.61-1.19l1,.43a2.65,2.65,0,0,1-2.6,1.8,2.92,2.92,0,0,1-2.95-3.03Z" transform="translate(-47.57 -15.06)"/><path class="b" d="M1979.55,211.34a.81.81,0,1,1,.81.8.81.81,0,0,1-.81-.8Zm.26,2.18h1.11v5.77h-1.11Z" transform="translate(-47.57 -15.06)"/><path class="b" d="M1982.75,213.52h1.1v.83a2.062,2.062,0,0,1,3.84,1.27v3.66h-1.13v-3.46c0-.81-.34-1.46-1.34-1.46s-1.35.71-1.35,1.59v3.33h-1.12Z" transform="translate(-47.57 -15.06)"/><path class="b" d="M1989.07,216.39a2.88,2.88,0,0,1,2.76-3,2.69,2.69,0,0,1,2.77,3,1.723,1.723,0,0,1,0,.36h-4.34a1.72,1.72,0,0,0,1.74,1.75,1.57,1.57,0,0,0,1.62-1.17l1,.34a2.61,2.61,0,0,1-2.59,1.82,2.88,2.88,0,0,1-2.96-3.1Zm4.35-.58a1.45,1.45,0,0,0-1.58-1.47,1.55,1.55,0,0,0-1.57,1.47Z" transform="translate(-47.57 -15.06)"/><path class="b" d="M1995.56,217.79l1-.36a1.23,1.23,0,0,0,1.34,1.08c.64,0,1-.36,1-.77s-.27-.63-.75-.74l-1-.21a1.65,1.65,0,0,1-1.44-1.62,2.155,2.155,0,0,1,4.2-.28l-1,.37a1.12,1.12,0,0,0-1.2-1,.87.87,0,0,0-1,.77c0,.35.22.6.66.7l.94.2a1.75,1.75,0,0,1,1.59,1.71,1.91,1.91,0,0,1-2.11,1.79,2.18,2.18,0,0,1-2.23-1.64Z" transform="translate(-47.57 -15.06)"/><path class="b" d="M2004.12,216.4a2.89,2.89,0,0,1,2.9-3.06,2.52,2.52,0,0,1,2.57,1.84l-1,.43a1.53,1.53,0,0,0-1.55-1.22,1.79,1.79,0,0,0-1.75,2,1.82,1.82,0,0,0,1.76,2,1.57,1.57,0,0,0,1.61-1.19l1,.43a2.64,2.64,0,0,1-2.6,1.8,2.92,2.92,0,0,1-2.94-3.03Z" transform="translate(-47.57 -15.06)"/><path class="b" d="M2010.58,217.74a1.814,1.814,0,0,1,1.76-1.75l1.56-.22c.34-.05.44-.23.44-.44,0-.56-.37-1-1.25-1a1.23,1.23,0,0,0-1.31,1.17l-1.08-.26a2.23,2.23,0,0,1,2.37-1.87c1.72,0,2.4,1,2.4,2.11v2.89a4.867,4.867,0,0,0,.07.95h-1.11a4.6,4.6,0,0,1-.06-.78,2.08,2.08,0,0,1-1.85,1,1.8,1.8,0,0,1-1.94-1.8Zm3.76-.92v-.26l-.65.09-1.11.17a.851.851,0,0,0,.09,1.7,1.51,1.51,0,0,0,1.67-1.7Z" transform="translate(-47.57 -15.06)"/><path class="b" d="M2017.24,213.52h1.11v.83a2.062,2.062,0,0,1,3.84,1.27v3.66h-1.13v-3.46c0-.81-.34-1.46-1.34-1.46s-1.35.71-1.35,1.59v3.33h-1.13Z" transform="translate(-47.57 -15.06)"/><path class="b" d="M1901.61,233.45v.84h-1.11v-8.68h1.11v3.73a2.1,2.1,0,0,1,1.91-1c1.75,0,2.65,1.34,2.65,3a2.791,2.791,0,0,1-2.69,3.07,2,2,0,0,1-1.87-.96Zm3.41-2.07c0-1.25-.66-2-1.7-2a1.79,1.79,0,0,0-1.72,2,1.82,1.82,0,0,0,1.72,2.06c1.03,0,1.68-.82,1.68-2.06Z" transform="translate(-47.57 -15.06)"/><path class="b" d="M1907.24,231.39a2.88,2.88,0,0,1,2.76-3,2.685,2.685,0,0,1,2.77,3,3.22,3.22,0,0,1,0,.36h-4.34a1.71,1.71,0,0,0,1.74,1.75,1.56,1.56,0,0,0,1.61-1.17l1,.34a2.62,2.62,0,0,1-2.59,1.82,2.88,2.88,0,0,1-2.95-3.1Zm4.36-.58a1.46,1.46,0,0,0-1.59-1.47,1.56,1.56,0,0,0-1.57,1.47Z" transform="translate(-47.57 -15.06)"/><path class="b" d="M1916.83,232.74a1.79,1.79,0,0,1,1.75-1.75l1.56-.22c.35-.05.44-.23.44-.44,0-.56-.37-1-1.24-1a1.23,1.23,0,0,0-1.31,1.17l-1.08-.26a2.23,2.23,0,0,1,2.36-1.87c1.73,0,2.4,1,2.4,2.11v2.89a5.893,5.893,0,0,0,.07.95h-1.1a4.6,4.6,0,0,1-.06-.78,2.1,2.1,0,0,1-1.86,1,1.8,1.8,0,0,1-1.93-1.8Zm3.75-.92v-.26l-.64.09-1.12.17a.86.86,0,0,0-.84.86.87.87,0,0,0,.94.84,1.51,1.51,0,0,0,1.66-1.7Z" transform="translate(-47.57 -15.06)"/><path class="b" d="M1923.49,225.61h1.13v8.68h-1.13Z" transform="translate(-47.57 -15.06)"/><path class="b" d="M1926.06,232.74a1.78,1.78,0,0,1,1.75-1.75l1.56-.22c.35-.05.44-.23.44-.44,0-.56-.37-1-1.25-1a1.22,1.22,0,0,0-1.3,1.17l-1.08-.26a2.22,2.22,0,0,1,2.36-1.87c1.73,0,2.4,1,2.4,2.11v2.89a5.893,5.893,0,0,0,.07.95h-1.1a3.7,3.7,0,0,1-.06-.78,2.1,2.1,0,0,1-1.86,1,1.79,1.79,0,0,1-1.93-1.8Zm3.75-.92v-.26l-.65.09-1.11.17a.86.86,0,0,0-.84.86.87.87,0,0,0,.94.84,1.51,1.51,0,0,0,1.66-1.7Z" transform="translate(-47.57 -15.06)"/><path class="b" d="M1932.72,228.52h1.1v1a1.8,1.8,0,0,1,1.73-1.1,2.573,2.573,0,0,1,.37,0v1.2h-.49c-1,0-1.58.5-1.58,1.77v2.89h-1.13Z" transform="translate(-47.57 -15.06)"/><path class="b" d="M1937.07,228.52h1.08v.77a2,2,0,0,1,1.75-.93,1.79,1.79,0,0,1,1.73,1.09,2.07,2.07,0,0,1,1.93-1.09,2,2,0,0,1,2,2.19v3.74h-1.11v-3.62a1.16,1.16,0,0,0-1.23-1.32,1.34,1.34,0,0,0-1.33,1.45v3.49h-1.12v-3.62a1.16,1.16,0,0,0-1.23-1.32,1.34,1.34,0,0,0-1.34,1.46v3.48h-1.12Z" transform="translate(-47.57 -15.06)"/><path class="b" d="M1947.07,226.34a.81.81,0,1,1,.8.8A.81.81,0,0,1,1947.07,226.34Zm.25,2.18h1.12v5.77h-1.12Z" transform="translate(-47.57 -15.06)"/><path class="b" d="M1950.26,228.52h1.1v.83a2.062,2.062,0,0,1,3.84,1.27v3.66h-1.12v-3.46c0-.81-.34-1.46-1.35-1.46s-1.34.71-1.34,1.59v3.33h-1.13Z" transform="translate(-47.57 -15.06)"/><path class="b" d="M1956.59,234.6l1.09-.25a1.53,1.53,0,0,0,1.57,1.42c1.21,0,1.76-.63,1.76-1.87v-.83a1.91,1.91,0,0,1-1.76,1,2.8,2.8,0,0,1,0-5.6,1.8,1.8,0,0,1,1.77.91v-.81h1.12v5.34a2.64,2.64,0,0,1-2.89,2.89,2.52,2.52,0,0,1-2.66-2.2Zm4.47-3.38a1.66,1.66,0,1,0-.407,1.291,1.67,1.67,0,0,0,.407-1.291Z" transform="translate(-47.57 -15.06)"/><path class="b" d="M1964,225.61h1.12v8.68H1964Z" transform="translate(-47.57 -15.06)"/><path class="b" d="M1968.73,233.66l-2.48-5.14h1.29l1.8,4,1.73-4h1.21l-3.76,8.18h-1.23Z" transform="translate(-47.57 -15.06)"/><path class="b" d="M1975.75,231.39a2.88,2.88,0,0,1,2.76-3,2.691,2.691,0,0,1,2.77,3,1.723,1.723,0,0,1,0,.36h-4.34a1.72,1.72,0,0,0,1.74,1.75,1.57,1.57,0,0,0,1.62-1.17l1,.34a2.6,2.6,0,0,1-2.59,1.82,2.88,2.88,0,0,1-2.96-3.1Zm4.35-.58a1.45,1.45,0,0,0-1.58-1.47,1.55,1.55,0,0,0-1.57,1.47Z" transform="translate(-47.57 -15.06)"/><path class="b" d="M1984,231.35l-2.07-2.83h1.36l1.42,2,1.39-2h1.33l-2.05,2.83c.35.47,1.78,2.47,2.12,2.94h-1.35l-1.49-2.12-1.46,2.12h-1.35Z" transform="translate(-47.57 -15.06)"/><path class="b" d="M1988.61,228.52h1.1v.9a2.13,2.13,0,0,1,1.93-1c1.72,0,2.65,1.33,2.65,3a2.725,2.725,0,0,1-2.69,3,2.13,2.13,0,0,1-1.87-.94v3.06h-1.12Zm4.53,2.88a1.73,1.73,0,1,0-3.42,0,1.81,1.81,0,0,0,1.71,2c1.05.04,1.71-.81,1.71-2Z" transform="translate(-47.57 -15.06)"/><path class="b" d="M1995.36,231.39a2.88,2.88,0,0,1,2.76-3,2.69,2.69,0,0,1,2.77,3,2.9,2.9,0,0,1,0,.36h-4.34a1.72,1.72,0,0,0,1.74,1.75,1.57,1.57,0,0,0,1.62-1.17l1,.34a2.61,2.61,0,0,1-2.59,1.82,2.88,2.88,0,0,1-2.96-3.1Zm4.35-.58a1.45,1.45,0,0,0-1.58-1.47,1.54,1.54,0,0,0-1.57,1.47Z" transform="translate(-47.57 -15.06)"/><path class="b" d="M2002.31,228.52h1.1v.83a2.062,2.062,0,0,1,3.84,1.27v3.66h-1.13v-3.46c0-.81-.34-1.46-1.34-1.46s-1.35.71-1.35,1.59v3.33h-1.12Z" transform="translate(-47.57 -15.06)"/><path class="b" d="M2008.56,232.79l1-.36a1.22,1.22,0,0,0,1.34,1.08c.64,0,1-.36,1-.77s-.26-.63-.74-.74l-1-.21a1.65,1.65,0,0,1-1.44-1.62,2.149,2.149,0,0,1,4.19-.28l-1,.37a1.12,1.12,0,0,0-1.2-1,.87.87,0,0,0-1,.77c0,.35.21.6.66.7l.93.2a1.75,1.75,0,0,1,1.6,1.71,1.91,1.91,0,0,1-2.11,1.79,2.18,2.18,0,0,1-2.23-1.64Z" transform="translate(-47.57 -15.06)"/><path class="b" d="M2014.22,226.34a.81.81,0,1,1,.81.8A.81.81,0,0,1,2014.22,226.34Zm.25,2.18h1.12v5.77h-1.12Z" transform="translate(-47.57 -15.06)"/><path class="b" d="M2016.77,228.52H2018l1.64,4.45,1.66-4.45h1.21l-2.31,5.77h-1.14Z" transform="translate(-47.57 -15.06)"/><path class="b" d="M2023.16,231.39a2.88,2.88,0,0,1,2.76-3,2.685,2.685,0,0,1,2.77,3,3.22,3.22,0,0,1,0,.36h-4.35a1.72,1.72,0,0,0,1.74,1.75,1.57,1.57,0,0,0,1.62-1.17l1,.34a2.6,2.6,0,0,1-2.59,1.82,2.88,2.88,0,0,1-2.95-3.1Zm4.36-.58a1.46,1.46,0,0,0-1.59-1.47,1.55,1.55,0,0,0-1.57,1.47Z" transform="translate(-47.57 -15.06)"/><path class="b" d="M2030,235.58a1.37,1.37,0,0,0,1-1.3.569.569,0,0,1-.26.06.77.77,0,0,1-.81-.82.84.84,0,0,1,.88-.8,1,1,0,0,1,1,1.14,2.16,2.16,0,0,1-1.78,2.34Z" transform="translate(-47.57 -15.06)"/><path class="b" d="M1900.5,243.52h1.09v.9a2.14,2.14,0,0,1,1.93-1c1.73,0,2.65,1.33,2.65,3a2.725,2.725,0,0,1-2.69,3,2.16,2.16,0,0,1-1.87-.94v3.06h-1.11Zm4.52,2.88a1.78,1.78,0,0,0-1.7-2,2.05,2.05,0,0,0,0,4.05c1.04-.01,1.68-.86,1.68-2.05Z" transform="translate(-47.57 -15.06)"/><path class="b" d="M1907.24,247.74A1.79,1.79,0,0,1,1909,246l1.56-.22c.35-.05.45-.23.45-.44,0-.56-.38-1-1.25-1a1.23,1.23,0,0,0-1.31,1.17l-1.08-.26a2.23,2.23,0,0,1,2.37-1.87c1.72,0,2.39,1,2.39,2.11v2.89a4.559,4.559,0,0,0,.08.95h-1.11a4.6,4.6,0,0,1-.06-.78,2.1,2.1,0,0,1-1.86,1,1.8,1.8,0,0,1-1.94-1.81Zm3.76-.92v-.26l-.65.09-1.12.17a.86.86,0,0,0-.84.86.87.87,0,0,0,.94.84,1.51,1.51,0,0,0,1.67-1.7Z" transform="translate(-47.57 -15.06)"/><path class="b" d="M1913.9,243.52h1.1v1a1.8,1.8,0,0,1,1.72-1.1,2.451,2.451,0,0,1,.37,0v1.2a4,4,0,0,0-.49,0c-.94,0-1.58.5-1.58,1.77v2.89h-1.13Z" transform="translate(-47.57 -15.06)"/><path class="b" d="M1918.7,247.71v-3.17h-1.1v-1h.31a.81.81,0,0,0,.89-.88v-.94h1v1.82h1.25v1h-1.25v3c0,.53.22.79.8.79a1.929,1.929,0,0,0,.45-.05v1a2.39,2.39,0,0,1-.77.11,1.5,1.5,0,0,1-1.58-1.68Z" transform="translate(-47.57 -15.06)"/><path class="b" d="M1922.42,240.61h1.13v8.68h-1.13Z" transform="translate(-47.57 -15.06)"/><path class="b" d="M1927.18,248.66l-2.48-5.14h1.3l1.8,4,1.72-4h1.21L1927,251.7h-1.23Z" transform="translate(-47.57 -15.06)"/><path class="b" d="M1935.71,248.45v.84h-1.12v-8.68h1.12v3.73a2.07,2.07,0,0,1,1.9-1c1.75,0,2.65,1.34,2.65,3a2.789,2.789,0,0,1-2.68,3.07,2,2,0,0,1-1.87-.96Zm3.4-2.07c0-1.25-.66-2-1.7-2a1.79,1.79,0,0,0-1.72,2,1.82,1.82,0,0,0,1.72,2.06c1.03,0,1.7-.82,1.7-2.06Z" transform="translate(-47.57 -15.06)"/><path class="b" d="M1941.33,246.39a2.88,2.88,0,0,1,2.76-3,2.685,2.685,0,0,1,2.77,3,3.22,3.22,0,0,1,0,.36h-4.34a1.71,1.71,0,0,0,1.74,1.75,1.58,1.58,0,0,0,1.62-1.17l1,.34a2.62,2.62,0,0,1-2.59,1.82,2.88,2.88,0,0,1-2.96-3.1Zm4.36-.58a1.46,1.46,0,0,0-1.59-1.47,1.56,1.56,0,0,0-1.57,1.47Z" transform="translate(-47.57 -15.06)"/><path class="b" d="M1947.9,246.4a2.89,2.89,0,0,1,2.9-3.06,2.51,2.51,0,0,1,2.57,1.84l-1,.43a1.53,1.53,0,0,0-1.55-1.22,1.79,1.79,0,0,0-1.75,2,1.82,1.82,0,0,0,1.76,2,1.57,1.57,0,0,0,1.61-1.19l1,.43a2.66,2.66,0,0,1-2.61,1.8,2.92,2.92,0,0,1-2.93-3.03Z" transform="translate(-47.57 -15.06)"/><path class="b" d="M1954.37,247.74a1.78,1.78,0,0,1,1.75-1.75l1.56-.22c.34-.05.44-.23.44-.44,0-.56-.37-1-1.25-1a1.22,1.22,0,0,0-1.3,1.17l-1.08-.26a2.22,2.22,0,0,1,2.36-1.87c1.73,0,2.4,1,2.4,2.11v2.89a5.893,5.893,0,0,0,.07.95h-1.1a3.689,3.689,0,0,1-.06-.78,2.11,2.11,0,0,1-1.86,1,1.79,1.79,0,0,1-1.93-1.8Zm3.75-.92v-.26l-.65.09-1.11.17a.851.851,0,0,0,.09,1.7,1.51,1.51,0,0,0,1.67-1.7Z" transform="translate(-47.57 -15.06)"/><path class="b" d="M1961,247.16v-3.64h1.12V247c0,.79.36,1.49,1.31,1.49a1.31,1.31,0,0,0,1.37-1.48v-3.48h1.12v4.7a4.986,4.986,0,0,0,.06,1.07h-1.07a4.172,4.172,0,0,1-.05-.69,1.88,1.88,0,0,1-1.71.87,2.13,2.13,0,0,1-2.15-2.32Z" transform="translate(-47.57 -15.06)"/><path class="b" d="M1967.28,247.79l1-.36a1.22,1.22,0,0,0,1.34,1.08c.64,0,1-.36,1-.77s-.26-.63-.74-.74l-1-.21a1.65,1.65,0,0,1-1.44-1.62,2.149,2.149,0,0,1,4.19-.28l-1,.37a1.12,1.12,0,0,0-1.2-1,.87.87,0,0,0-1,.77c0,.35.21.6.66.7l.93.2a1.75,1.75,0,0,1,1.6,1.71,1.91,1.91,0,0,1-2.11,1.79,2.18,2.18,0,0,1-2.23-1.64Z" transform="translate(-47.57 -15.06)"/><path class="b" d="M1972.81,246.39a2.88,2.88,0,0,1,2.76-3,2.69,2.69,0,0,1,2.77,3,1.731,1.731,0,0,1,0,.36H1974a1.72,1.72,0,0,0,1.74,1.75,1.57,1.57,0,0,0,1.62-1.17l1,.34a2.6,2.6,0,0,1-2.59,1.82,2.88,2.88,0,0,1-2.96-3.1Zm4.35-.58a1.45,1.45,0,0,0-1.58-1.47,1.55,1.55,0,0,0-1.57,1.47Z" transform="translate(-47.57 -15.06)"/><path class="b" d="M1982.53,241.34a.81.81,0,1,1,.8.8A.81.81,0,0,1,1982.53,241.34Zm.25,2.18h1.12v5.77h-1.12Z" transform="translate(-47.57 -15.06)"/><path class="b" d="M1986.17,247.71v-3.17h-1.11v-1h.31a.8.8,0,0,0,.89-.88v-.94h1v1.82h1.25v1h-1.25v3c0,.53.22.79.81.79a1.9,1.9,0,0,0,.44-.05v1a2.341,2.341,0,0,1-.77.11,1.49,1.49,0,0,1-1.57-1.68Z" transform="translate(-47.57 -15.06)"/><path class="b" d="M1992.66,241.34a.81.81,0,1,1,.8.8A.81.81,0,0,1,1992.66,241.34Zm.25,2.18H1994v5.77h-1.11Z" transform="translate(-47.57 -15.06)"/><path class="b" d="M1995.39,247.79l1-.36a1.23,1.23,0,0,0,1.35,1.08c.63,0,1-.36,1-.77s-.26-.63-.74-.74l-1-.21a1.65,1.65,0,0,1-1.44-1.62,2.155,2.155,0,0,1,4.2-.28l-1,.37a1.11,1.11,0,0,0-1.2-1,.87.87,0,0,0-1,.77c0,.35.22.6.66.7l.94.2a1.75,1.75,0,0,1,1.59,1.71,1.91,1.91,0,0,1-2.11,1.79,2.18,2.18,0,0,1-2.25-1.64Z" transform="translate(-47.57 -15.06)"/><path class="b" d="M2004,246.39a2.83,2.83,0,0,1,2.73-3,1.79,1.79,0,0,1,1.77,1v-3.73h1.11v7.61a9.383,9.383,0,0,0,.06,1.07h-1.09a5.3,5.3,0,0,1-.06-.78v-.09a1.94,1.94,0,0,1-1.79,1,2.78,2.78,0,0,1-2.73-3.08Zm4.51,0c0-1.19-.63-2-1.66-2a1.779,1.779,0,0,0-1.7,2c0,1.16.61,2.06,1.69,2.06s1.62-.9,1.62-2.08Z" transform="translate(-47.57 -15.06)"/><path class="b" d="M2011.15,241.34a.81.81,0,1,1,.8.8A.81.81,0,0,1,2011.15,241.34Zm.25,2.18h1.12v5.77h-1.12Z" transform="translate(-47.57 -15.06)"/><path class="b" d="M2014.8,244.54h-1.07v-1h1.07v-1a1.83,1.83,0,0,1,1.89-2,1.56,1.56,0,0,1,.67.12v1a1.39,1.39,0,0,0-.49-.07.86.86,0,0,0-.91,1v.91h2.63v-1a1.83,1.83,0,0,1,1.89-2,1.561,1.561,0,0,1,.67.12v1a1.389,1.389,0,0,0-.49-.07.86.86,0,0,0-.91,1v.91h3.81v5.77h-1.11v-4.75h-2.7v4.75h-1.16v-4.75H2016v4.75h-1.16Zm7.4-3.22a.81.81,0,1,1,.8.8.81.81,0,0,1-.8-.8Z" transform="translate(-47.57 -15.06)"/><path class="b" d="M2025,246.4a2.89,2.89,0,0,1,2.9-3.06,2.51,2.51,0,0,1,2.57,1.84l-1,.43a1.53,1.53,0,0,0-1.55-1.22,1.79,1.79,0,0,0-1.75,2,1.82,1.82,0,0,0,1.76,2,1.57,1.57,0,0,0,1.61-1.19l1,.43a2.66,2.66,0,0,1-2.61,1.8,2.92,2.92,0,0,1-2.93-3.03Z" transform="translate(-47.57 -15.06)"/><path class="b" d="M2031.8,247.16v-3.64h1.13V247c0,.79.36,1.49,1.3,1.49a1.3,1.3,0,0,0,1.37-1.48v-3.48h1.13v4.7a4.986,4.986,0,0,0,.06,1.07h-1.08a5.658,5.658,0,0,1,0-.69,1.869,1.869,0,0,1-1.7.87,2.14,2.14,0,0,1-2.21-2.32Z" transform="translate(-47.57 -15.06)"/><path class="b" d="M2038.57,240.61h1.13v8.68h-1.13Z" transform="translate(-47.57 -15.06)"/><path class="b" d="M2042,247.71v-3.17h-1.1v-1h.31a.8.8,0,0,0,.89-.88v-.94h1v1.82h1.25v1h-1.25v3c0,.53.22.79.8.79a1.931,1.931,0,0,0,.45-.05v1a2.39,2.39,0,0,1-.77.11,1.5,1.5,0,0,1-1.58-1.68Z" transform="translate(-47.57 -15.06)"/><path class="b" d="M1900.94,262.71v-3.17h-1.1v-1h.31a.81.81,0,0,0,.89-.88v-.94h1v1.82h1.25v1h-1.25v3c0,.53.22.79.8.79a1.927,1.927,0,0,0,.45-.05v1a2.389,2.389,0,0,1-.77.11,1.5,1.5,0,0,1-1.58-1.68Z" transform="translate(-47.57 -15.06)"/><path class="b" d="M1904.23,261.4a3,3,0,1,1,3,3.07,2.91,2.91,0,0,1-3-3.07Zm4.75,0a1.82,1.82,0,1,0-1.8,2.06,1.84,1.84,0,0,0,1.82-2.06Z" transform="translate(-47.57 -15.06)"/><path class="b" d="M1914.21,264.6l1.1-.25a1.53,1.53,0,0,0,1.57,1.42c1.21,0,1.76-.63,1.76-1.87v-.83a1.919,1.919,0,0,1-1.76.95,2.8,2.8,0,1,1,0-5.6,1.81,1.81,0,0,1,1.77.91v-.81h1.12v5.34a2.64,2.64,0,0,1-2.89,2.89,2.54,2.54,0,0,1-2.67-2.15Zm4.48-3.38a1.67,1.67,0,1,0-.757,1.63,1.67,1.67,0,0,0,.757-1.63Z" transform="translate(-47.57 -15.06)"/><path class="b" d="M1921.21,261.39a2.88,2.88,0,0,1,2.76-3.05,2.691,2.691,0,0,1,2.77,3,1.731,1.731,0,0,1,0,.36h-4.34a1.72,1.72,0,0,0,1.74,1.75,1.57,1.57,0,0,0,1.62-1.17l1,.34a2.6,2.6,0,0,1-2.59,1.82,2.88,2.88,0,0,1-2.96-3.05Zm4.35-.58a1.45,1.45,0,0,0-1.58-1.47,1.55,1.55,0,0,0-1.57,1.47Z" transform="translate(-47.57 -15.06)"/><path class="b" d="M1928.54,262.71v-3.17h-1.1v-1h.31a.81.81,0,0,0,.89-.88v-.94h1v1.82h1.25v1h-1.25v3c0,.53.21.79.8.79a1.929,1.929,0,0,0,.45-.05v1a2.389,2.389,0,0,1-.77.11,1.5,1.5,0,0,1-1.58-1.68Z" transform="translate(-47.57 -15.06)"/><path class="b" d="M1935.5,262.71v-3.17h-1.1v-1h.31a.81.81,0,0,0,.89-.88v-.94h1v1.82h1.25v1h-1.25v3c0,.53.21.79.8.79a1.929,1.929,0,0,0,.45-.05v1a2.389,2.389,0,0,1-.77.11,1.5,1.5,0,0,1-1.58-1.68Z" transform="translate(-47.57 -15.06)"/><path class="b" d="M1939.22,255.61h1.13v3.58a2.13,2.13,0,0,1,3.81,1.44v3.66H1943v-3.46c0-.81-.34-1.46-1.35-1.46a1.38,1.38,0,0,0-1.34,1.53v3.39h-1.13Z" transform="translate(-47.57 -15.06)"/><path class="b" d="M1945.55,261.39a2.88,2.88,0,0,1,2.75-3.05,2.685,2.685,0,0,1,2.77,3,3.191,3.191,0,0,1,0,.36h-4.34a1.71,1.71,0,0,0,1.74,1.75,1.58,1.58,0,0,0,1.62-1.17l1,.34a2.62,2.62,0,0,1-2.59,1.82,2.88,2.88,0,0,1-2.95-3.05Zm4.35-.58a1.45,1.45,0,0,0-1.58-1.47,1.56,1.56,0,0,0-1.58,1.47Z" transform="translate(-47.57 -15.06)"/><path class="b" d="M1952.24,256.34a.81.81,0,1,1,.8.8.81.81,0,0,1-.8-.8Zm.25,2.18h1.12v5.77h-1.12Z" transform="translate(-47.57 -15.06)"/><path class="b" d="M1955.43,258.52h1.11v1a1.8,1.8,0,0,1,1.72-1.1,2.619,2.619,0,0,1,.38,0v1.2h-.5c-.94,0-1.58.5-1.58,1.77v2.89h-1.13Z" transform="translate(-47.57 -15.06)"/><path class="b" d="M1962.18,261.4a2.89,2.89,0,0,1,2.9-3.06,2.52,2.52,0,0,1,2.57,1.84l-1,.43a1.53,1.53,0,0,0-1.55-1.22,1.79,1.79,0,0,0-1.75,2,1.82,1.82,0,0,0,1.76,2,1.57,1.57,0,0,0,1.61-1.19l1,.43a2.64,2.64,0,0,1-2.6,1.8,2.92,2.92,0,0,1-2.94-3.03Z" transform="translate(-47.57 -15.06)"/><path class="b" d="M1968.65,261.4a3,3,0,1,1,2.95,3.07,2.91,2.91,0,0,1-2.95-3.07Zm4.74,0a1.81,1.81,0,1,0-1.79,2.06,1.84,1.84,0,0,0,1.79-2.06Z" transform="translate(-47.57 -15.06)"/><path class="b" d="M1976,258.52h1.08v.77a2,2,0,0,1,1.75-.93,1.8,1.8,0,0,1,1.73,1.09,2.06,2.06,0,0,1,1.93-1.09,2,2,0,0,1,2,2.19v3.74h-1.12v-3.62a1.16,1.16,0,0,0-1.22-1.32,1.34,1.34,0,0,0-1.33,1.45v3.49h-1.13v-3.62a1.16,1.16,0,0,0-1.22-1.32,1.34,1.34,0,0,0-1.35,1.46v3.48H1976Z" transform="translate(-47.57 -15.06)"/><path class="b" d="M1986.24,258.52h1.09v.9a2.13,2.13,0,0,1,1.93-1c1.73,0,2.65,1.33,2.65,3a2.768,2.768,0,0,1-2.69,3.05,2.14,2.14,0,0,1-1.87-.94v3.06h-1.11Zm4.52,2.88a1.78,1.78,0,0,0-1.7-2,2.05,2.05,0,0,0,0,4.05C1990.1,263.44,1990.76,262.59,1990.76,261.4Z" transform="translate(-47.57 -15.06)"/><path class="b" d="M1993.36,255.61h1.13v8.68h-1.13Z" transform="translate(-47.57 -15.06)"/><path class="b" d="M1995.93,261.39a2.88,2.88,0,0,1,2.76-3.05,2.685,2.685,0,0,1,2.77,3,3.191,3.191,0,0,1,0,.36h-4.34a1.7,1.7,0,0,0,1.73,1.75,1.57,1.57,0,0,0,1.62-1.17l1,.34a2.62,2.62,0,0,1-2.6,1.82,2.88,2.88,0,0,1-2.94-3.05Zm4.36-.58a1.46,1.46,0,0,0-1.59-1.47,1.56,1.56,0,0,0-1.57,1.47Z" transform="translate(-47.57 -15.06)"/><path class="b" d="M2004.16,261.35l-2.07-2.83h1.37l1.41,2,1.39-2h1.33l-2,2.83c.35.47,1.78,2.47,2.13,2.94h-1.36l-1.49-2.12-1.46,2.12H2002Z" transform="translate(-47.57 -15.06)"/><path class="b" d="M2008.54,256.34a.81.81,0,1,1,.81.8.81.81,0,0,1-.81-.8Zm.26,2.18h1.11v5.77h-1.11Z" transform="translate(-47.57 -15.06)"/><path class="b" d="M2012.18,262.71v-3.17h-1.1v-1h.31a.81.81,0,0,0,.89-.88v-.94h1v1.82h1.24v1h-1.24v3c0,.53.21.79.8.79a1.78,1.78,0,0,0,.44-.05v1a2.26,2.26,0,0,1-.76.11,1.5,1.5,0,0,1-1.58-1.68Z" transform="translate(-47.57 -15.06)"/><path class="b" d="M2017.71,263.66l-2.48-5.14h1.29l1.8,4,1.73-4h1.21l-3.75,8.18h-1.24Z" transform="translate(-47.57 -15.06)"/><path class="b" d="M2024.73,262.74a1.79,1.79,0,0,1,1.75-1.75l1.56-.22a.405.405,0,0,0,.45-.44c0-.56-.38-1-1.25-1a1.23,1.23,0,0,0-1.31,1.17l-1.08-.26a2.23,2.23,0,0,1,2.36-1.87c1.73,0,2.4,1,2.4,2.11v2.89a4.579,4.579,0,0,0,.08,1h-1.11a4.6,4.6,0,0,1-.06-.78,2.1,2.1,0,0,1-1.86,1,1.8,1.8,0,0,1-1.93-1.85Zm3.76-.92v-.26l-.65.09-1.12.17a.86.86,0,0,0-.84.86.87.87,0,0,0,.94.84,1.51,1.51,0,0,0,1.67-1.7Z" transform="translate(-47.57 -15.06)"/><path class="b" d="M2031.39,258.52h1.11v.83a2.057,2.057,0,0,1,3.83,1.27v3.66h-1.12v-3.46c0-.81-.34-1.46-1.35-1.46s-1.34.71-1.34,1.59v3.33h-1.13Z" transform="translate(-47.57 -15.06)"/><path class="b" d="M2037.72,261.39a2.83,2.83,0,0,1,2.73-3,1.76,1.76,0,0,1,1.76,1v-3.73h1.12v7.61a9.411,9.411,0,0,0,.06,1.07h-1.09a4.185,4.185,0,0,1-.06-.78v-.09a1.94,1.94,0,0,1-1.79,1,2.78,2.78,0,0,1-2.73-3.08Zm4.51,0c0-1.19-.63-2-1.66-2a1.779,1.779,0,0,0-1.7,2c0,1.16.61,2.06,1.69,2.06s1.67-.9,1.67-2.08Z" transform="translate(-47.57 -15.06)"/><path class="b" d="M1900.11,276.4a2.9,2.9,0,0,1,2.91-3.06,2.5,2.5,0,0,1,2.56,1.84l-1,.43a1.51,1.51,0,0,0-1.54-1.22,2.121,2.121,0,0,0-1.309,3.386,1.81,1.81,0,0,0,1.319.614,1.58,1.58,0,0,0,1.61-1.19l1,.43a2.64,2.64,0,0,1-2.6,1.8,2.92,2.92,0,0,1-2.95-3.03Z" transform="translate(-47.57 -15.06)"/><path class="b" d="M1907,270.61h1.12v3.58a2.105,2.105,0,0,1,3.82,1.44v3.66h-1.13v-3.46c0-.81-.34-1.46-1.34-1.46s-1.32.68-1.35,1.53v3.39H1907Z" transform="translate(-47.57 -15.06)"/><path class="b" d="M1913.42,271.34a.81.81,0,1,1,.81.8A.81.81,0,0,1,1913.42,271.34Zm.25,2.18h1.12v5.77h-1.12Z" transform="translate(-47.57 -15.06)"/><path class="b" d="M1916.61,273.52h1.11v1a1.8,1.8,0,0,1,1.72-1.1,2.624,2.624,0,0,1,.38,0v1.2h-.5c-.94,0-1.58.5-1.58,1.77v2.89h-1.13Z" transform="translate(-47.57 -15.06)"/><path class="b" d="M1920.59,277.74a1.78,1.78,0,0,1,1.75-1.75l1.56-.22a.4.4,0,0,0,.44-.44c0-.56-.37-1-1.25-1a1.22,1.22,0,0,0-1.3,1.17l-1.08-.26a2.22,2.22,0,0,1,2.36-1.87c1.73,0,2.4,1,2.4,2.11v2.89a5.873,5.873,0,0,0,.07,1h-1.1a3.7,3.7,0,0,1-.06-.78,2.11,2.11,0,0,1-1.86,1,1.79,1.79,0,0,1-1.93-1.85Zm3.75-.92v-.26l-.65.09-1.11.17a.851.851,0,0,0,.09,1.7,1.51,1.51,0,0,0,1.67-1.7Z" transform="translate(-47.57 -15.06)"/><path class="b" d="M1927.25,270.61h1.12v8.68h-1.12Z" transform="translate(-47.57 -15.06)"/><path class="b" d="M1930,271.34a.81.81,0,1,1,.8.8.81.81,0,0,1-.8-.8Zm.25,2.18h1.11v5.77h-1.11Z" transform="translate(-47.57 -15.06)"/><path class="b" d="M1933.58,277.71v-3.17h-1.1v-1h.31a.81.81,0,0,0,.89-.88v-.94h1v1.82H1936v1h-1.25v3c0,.53.21.79.8.79a1.927,1.927,0,0,0,.45-.05v1a2.389,2.389,0,0,1-.77.11,1.5,1.5,0,0,1-1.65-1.68Z" transform="translate(-47.57 -15.06)"/><path class="b" d="M1939.11,278.66l-2.48-5.14h1.3l1.79,4,1.73-4h1.21l-3.75,8.18h-1.24Z" transform="translate(-47.57 -15.06)"/><path class="b" d="M1946.52,273.52h1.1v1a1.8,1.8,0,0,1,1.73-1.1,2.58,2.58,0,0,1,.37,0v1.2h-.49c-1,0-1.58.5-1.58,1.77v2.89h-1.13Z" transform="translate(-47.57 -15.06)"/><path class="b" d="M1950.62,271.34a.81.81,0,1,1,.81.8.81.81,0,0,1-.81-.8Zm.25,2.18H1952v5.77h-1.12Z" transform="translate(-47.57 -15.06)"/><path class="b" d="M1953.43,279.6l1.09-.25a1.54,1.54,0,0,0,1.57,1.42c1.21,0,1.77-.63,1.77-1.87v-.83a1.93,1.93,0,0,1-1.77.95,2.8,2.8,0,1,1,0-5.6,1.82,1.82,0,0,1,1.78.91v-.81H1959v5.34a2.64,2.64,0,0,1-2.89,2.89,2.52,2.52,0,0,1-2.68-2.15Zm4.47-3.38a1.66,1.66,0,1,0-.407,1.291,1.67,1.67,0,0,0,.407-1.291Z" transform="translate(-47.57 -15.06)"/><path class="b" d="M1960.81,270.61h1.13v3.58a2.13,2.13,0,0,1,3.81,1.44v3.66h-1.13v-3.46c0-.81-.33-1.46-1.34-1.46a1.38,1.38,0,0,0-1.34,1.53v3.39h-1.13Z" transform="translate(-47.57 -15.06)"/><path class="b" d="M1967.91,277.71v-3.17h-1.1v-1h.31a.8.8,0,0,0,.89-.88v-.94h1v1.82h1.25v1H1969v3c0,.53.22.79.8.79a1.927,1.927,0,0,0,.45-.05v1a2.389,2.389,0,0,1-.77.11,1.5,1.5,0,0,1-1.57-1.68Z" transform="translate(-47.57 -15.06)"/><path class="b" d="M1971.41,278.52a.83.83,0,0,1,.82-.84.84.84,0,0,1,.84.84.82.82,0,0,1-.84.83.81.81,0,0,1-.82-.83Z" transform="translate(-47.57 -15.06)"/><path class="b" d="M1900.64,291.39v-5.6h1.17v5.56a1.89,1.89,0,1,0,3.77,0v-5.56h1.18v5.6a3.06,3.06,0,1,1-6.12,0Z" transform="translate(-47.57 -15.06)"/><path class="b" d="M1908.66,288.52h1.1v.83a2.062,2.062,0,0,1,3.84,1.27v3.66h-1.13v-3.46c0-.81-.33-1.46-1.34-1.46s-1.34.71-1.34,1.59v3.33h-1.13Z" transform="translate(-47.57 -15.06)"/><path class="b" d="M1915.77,289.54h-1.06v-1h1.06v-1a1.84,1.84,0,0,1,1.9-2,1.56,1.56,0,0,1,.67.12v1a1.39,1.39,0,0,0-.49-.07.86.86,0,0,0-.91,1v.91h1.39v1h-1.39v4.75h-1.17Z" transform="translate(-47.57 -15.06)"/><path class="b" d="M1919,291.4a3,3,0,1,1,3,3.07,2.91,2.91,0,0,1-3-3.07Zm4.75,0a1.82,1.82,0,1,0-1.8,2.06,1.84,1.84,0,0,0,1.8-2.06Z" transform="translate(-47.57 -15.06)"/><path class="b" d="M1926.35,288.52h1.1v1a1.8,1.8,0,0,1,1.73-1.1,2.574,2.574,0,0,1,.37,0v1.2h-.49c-1,0-1.59.5-1.59,1.77v2.89h-1.12Z" transform="translate(-47.57 -15.06)"/><path class="b" d="M1931.15,292.71v-3.17H1930v-1h.31a.8.8,0,0,0,.89-.88v-.94h1v1.82h1.25v1h-1.25v3c0,.53.22.79.81.79a1.841,1.841,0,0,0,.44-.05v1a2.28,2.28,0,0,1-.77.11,1.49,1.49,0,0,1-1.53-1.68Z" transform="translate(-47.57 -15.06)"/><path class="b" d="M1934.81,292.16v-3.64h1.12V292c0,.79.36,1.49,1.31,1.49a1.31,1.31,0,0,0,1.37-1.48v-3.48h1.13v4.7a8.381,8.381,0,0,0,.06,1.07h-1.08a4.161,4.161,0,0,1,0-.69,1.88,1.88,0,0,1-1.71.87,2.13,2.13,0,0,1-2.2-2.32Z" transform="translate(-47.57 -15.06)"/><path class="b" d="M1941.57,288.52h1.11v.83a2.062,2.062,0,0,1,3.84,1.27v3.66h-1.13v-3.46c0-.81-.34-1.46-1.35-1.46s-1.34.71-1.34,1.59v3.33h-1.13Z" transform="translate(-47.57 -15.06)"/><path class="b" d="M1947.9,292.74a1.78,1.78,0,0,1,1.75-1.75l1.56-.22a.4.4,0,0,0,.44-.44c0-.56-.37-1-1.24-1a1.22,1.22,0,0,0-1.31,1.17l-1.08-.26a2.22,2.22,0,0,1,2.36-1.87c1.73,0,2.4,1,2.4,2.11v2.89a5.9,5.9,0,0,0,.07,1h-1.1a3.7,3.7,0,0,1-.06-.78,2.1,2.1,0,0,1-1.86,1,1.79,1.79,0,0,1-1.93-1.85Zm3.75-.92v-.26l-.65.09-1.11.17a.86.86,0,0,0-.84.86.87.87,0,0,0,.94.84,1.51,1.51,0,0,0,1.66-1.7Z" transform="translate(-47.57 -15.06)"/><path class="b" d="M1955,292.71v-3.17h-1.1v-1h.31a.8.8,0,0,0,.89-.88v-.94h1v1.82h1.25v1h-1.25v3c0,.53.22.79.8.79a1.927,1.927,0,0,0,.45-.05v1a2.389,2.389,0,0,1-.77.11,1.5,1.5,0,0,1-1.58-1.68Z" transform="translate(-47.57 -15.06)"/><path class="b" d="M1958.24,291.39a2.88,2.88,0,0,1,2.76-3.05,2.685,2.685,0,0,1,2.77,3,3.191,3.191,0,0,1,0,.36h-4.34a1.7,1.7,0,0,0,1.73,1.75,1.57,1.57,0,0,0,1.62-1.17l1,.34a2.62,2.62,0,0,1-2.6,1.82,2.88,2.88,0,0,1-2.94-3.05Zm4.36-.58a1.46,1.46,0,0,0-1.59-1.47,1.55,1.55,0,0,0-1.57,1.47Z" transform="translate(-47.57 -15.06)"/><path class="b" d="M1965.19,285.61h1.13v8.68h-1.13Z" transform="translate(-47.57 -15.06)"/><path class="b" d="M1970,293.66l-2.48-5.14h1.3l1.79,4,1.73-4h1.21l-3.75,8.18h-1.24Z" transform="translate(-47.57 -15.06)"/><path class="b" d="M1973.84,295.58a1.37,1.37,0,0,0,1-1.3.59.59,0,0,1-.27.06.77.77,0,0,1-.8-.82.84.84,0,0,1,.88-.8,1,1,0,0,1,1,1.14,2.16,2.16,0,0,1-1.78,2.34Z" transform="translate(-47.57 -15.06)"/><path class="b" d="M1980.45,292.71v-3.17h-1.1v-1h.31a.8.8,0,0,0,.89-.88v-.94h1v1.82h1.25v1h-1.25v3c0,.53.22.79.8.79a1.927,1.927,0,0,0,.45-.05v1a2.389,2.389,0,0,1-.77.11,1.5,1.5,0,0,1-1.58-1.68Z" transform="translate(-47.57 -15.06)"/><path class="b" d="M1984.17,285.61h1.13v3.58a2.13,2.13,0,0,1,3.81,1.44v3.66H1988v-3.46c0-.81-.34-1.46-1.35-1.46a1.38,1.38,0,0,0-1.34,1.53v3.39h-1.13Z" transform="translate(-47.57 -15.06)"/><path class="b" d="M1990.63,286.34a.81.81,0,1,1,.8.8A.81.81,0,0,1,1990.63,286.34Zm.25,2.18H1992v5.77h-1.12Z" transform="translate(-47.57 -15.06)"/><path class="b" d="M1993.37,292.79l1-.36a1.24,1.24,0,0,0,1.35,1.08c.63,0,1-.36,1-.77s-.26-.63-.74-.74l-1-.21a1.64,1.64,0,0,1-1.43-1.62,2.149,2.149,0,0,1,4.19-.28l-1,.37a1.12,1.12,0,0,0-1.2-1,.87.87,0,0,0-1,.77c0,.35.21.6.66.7l.93.2a1.75,1.75,0,0,1,1.6,1.71,1.919,1.919,0,0,1-2.11,1.79,2.17,2.17,0,0,1-2.25-1.64Z" transform="translate(-47.57 -15.06)"/><path class="b" d="M2002.31,288.52h1.07v.77a2,2,0,0,1,1.76-.93,1.79,1.79,0,0,1,1.72,1.09,2.07,2.07,0,0,1,1.93-1.09,2,2,0,0,1,2,2.19v3.74h-1.11v-3.62a1.16,1.16,0,0,0-1.22-1.32,1.34,1.34,0,0,0-1.34,1.45v3.49H2006v-3.62a1.16,1.16,0,0,0-1.23-1.32,1.34,1.34,0,0,0-1.34,1.46v3.48h-1.11Z" transform="translate(-47.57 -15.06)"/><path class="b" d="M2012.17,291.39a2.88,2.88,0,0,1,2.76-3.05,2.691,2.691,0,0,1,2.77,3,1.723,1.723,0,0,1,0,.36h-4.34a1.72,1.72,0,0,0,1.74,1.75,1.57,1.57,0,0,0,1.62-1.17l1,.34a2.61,2.61,0,0,1-2.59,1.82,2.88,2.88,0,0,1-2.96-3.05Zm4.35-.58a1.45,1.45,0,0,0-1.58-1.47,1.55,1.55,0,0,0-1.57,1.47Z" transform="translate(-47.57 -15.06)"/><path class="b" d="M2018.73,292.74a1.79,1.79,0,0,1,1.75-1.75l1.56-.22a.405.405,0,0,0,.45-.44c0-.56-.37-1-1.25-1a1.23,1.23,0,0,0-1.31,1.17l-1.08-.26a2.23,2.23,0,0,1,2.37-1.87c1.72,0,2.39,1,2.39,2.11v2.89a4.572,4.572,0,0,0,.08,1h-1.11a4.6,4.6,0,0,1-.06-.78,2.09,2.09,0,0,1-1.86,1,1.8,1.8,0,0,1-1.93-1.85Zm3.76-.92v-.26l-.65.09-1.12.17a.86.86,0,0,0-.84.86.87.87,0,0,0,.94.84,1.51,1.51,0,0,0,1.67-1.7Z" transform="translate(-47.57 -15.06)"/><path class="b" d="M2025.39,288.52h1.11v.83a2.057,2.057,0,0,1,3.83,1.27v3.66h-1.12v-3.46c0-.81-.34-1.46-1.35-1.46s-1.34.71-1.34,1.59v3.33h-1.13Z" transform="translate(-47.57 -15.06)"/><path class="b" d="M2031.64,292.79l1-.36a1.24,1.24,0,0,0,1.35,1.08c.63,0,1-.36,1-.77s-.26-.63-.74-.74l-1-.21a1.65,1.65,0,0,1-1.44-1.62,2.186,2.186,0,0,1,4.25-.28l-1,.37a1.1,1.1,0,0,0-1.19-1,.87.87,0,0,0-1,.77c0,.35.21.6.66.7l.93.2a1.76,1.76,0,0,1,1.6,1.71,1.919,1.919,0,0,1-2.11,1.79,2.19,2.19,0,0,1-2.31-1.64Z" transform="translate(-47.57 -15.06)"/><path class="b" d="M1900.94,307.71v-3.17h-1.1v-1h.31a.81.81,0,0,0,.89-.88v-.94h1v1.82h1.25v1h-1.25v3c0,.53.22.79.8.79a1.929,1.929,0,0,0,.45-.05v1a2.389,2.389,0,0,1-.77.11,1.5,1.5,0,0,1-1.58-1.68Z" transform="translate(-47.57 -15.06)"/><path class="b" d="M1904.66,300.61h1.13v3.58a2.13,2.13,0,0,1,3.81,1.44v3.66h-1.12v-3.46c0-.81-.34-1.46-1.35-1.46a1.38,1.38,0,0,0-1.34,1.53v3.39h-1.13Z" transform="translate(-47.57 -15.06)"/><path class="b" d="M1911,307.74a1.78,1.78,0,0,1,1.75-1.75l1.56-.22a.4.4,0,0,0,.44-.44c0-.56-.37-1-1.25-1a1.22,1.22,0,0,0-1.3,1.17l-1.08-.26a2.22,2.22,0,0,1,2.36-1.87c1.73,0,2.4,1,2.4,2.11v2.89a5.872,5.872,0,0,0,.07,1h-1.1a3.689,3.689,0,0,1-.06-.78,2.11,2.11,0,0,1-1.86,1,1.79,1.79,0,0,1-1.93-1.85Zm3.75-.92v-.26l-.65.09-1.11.17a.851.851,0,1,0,.09,1.7,1.51,1.51,0,0,0,1.66-1.7Z" transform="translate(-47.57 -15.06)"/><path class="b" d="M1918,307.71v-3.17h-1.1v-1h.31a.81.81,0,0,0,.89-.88v-.94h1v1.82h1.25v1h-1.25v3c0,.53.22.79.8.79a1.929,1.929,0,0,0,.45-.05v1a2.389,2.389,0,0,1-.77.11,1.5,1.5,0,0,1-1.58-1.68Z" transform="translate(-47.57 -15.06)"/><path class="b" d="M1924.79,303.52h1.07v.77a2,2,0,0,1,1.76-.93,1.78,1.78,0,0,1,1.72,1.09,2.07,2.07,0,0,1,1.93-1.09,2,2,0,0,1,2,2.19v3.74h-1.11v-3.62a1.16,1.16,0,0,0-1.22-1.32,1.34,1.34,0,0,0-1.34,1.45v3.49h-1.12v-3.62a1.16,1.16,0,0,0-1.23-1.32,1.34,1.34,0,0,0-1.34,1.46v3.48h-1.11Z" transform="translate(-47.57 -15.06)"/><path class="b" d="M1934.65,307.74a1.79,1.79,0,0,1,1.75-1.75l1.56-.22a.4.4,0,0,0,.44-.44c0-.56-.37-1-1.24-1a1.22,1.22,0,0,0-1.31,1.17l-1.08-.26a2.23,2.23,0,0,1,2.36-1.87c1.73,0,2.4,1,2.4,2.11v2.89a5.9,5.9,0,0,0,.07,1h-1.1a4.586,4.586,0,0,1-.06-.78,2.1,2.1,0,0,1-1.86,1,1.8,1.8,0,0,1-1.93-1.85Zm3.75-.92v-.26l-.64.09-1.12.17a.86.86,0,0,0-.84.86.87.87,0,0,0,.94.84,1.51,1.51,0,0,0,1.66-1.7Z" transform="translate(-47.57 -15.06)"/><path class="b" d="M1941.31,303.52h1.1v.83a2.062,2.062,0,0,1,3.84,1.27v3.66h-1.13v-3.46c0-.81-.33-1.46-1.34-1.46s-1.34.71-1.34,1.59v3.33h-1.13Z" transform="translate(-47.57 -15.06)"/><path class="b" d="M1949.64,308.66l-2.49-5.14h1.3l1.8,4,1.73-4h1.21l-3.76,8.18h-1.23Z" transform="translate(-47.57 -15.06)"/><path class="b" d="M1957,303.52h1.09v.9a2.14,2.14,0,0,1,1.93-1c1.73,0,2.65,1.33,2.65,3a2.766,2.766,0,0,1-2.68,3.05,2.13,2.13,0,0,1-1.87-.94v3.06H1957Zm4.52,2.88a1.78,1.78,0,0,0-1.7-2,2.05,2.05,0,0,0,0,4.05,1.813,1.813,0,0,0,1.74-2.05Z" transform="translate(-47.57 -15.06)"/><path class="b" d="M1963.79,307.74a1.78,1.78,0,0,1,1.75-1.75l1.56-.22a.4.4,0,0,0,.44-.44c0-.56-.37-1-1.25-1a1.22,1.22,0,0,0-1.3,1.17l-1.08-.26a2.22,2.22,0,0,1,2.36-1.87c1.73,0,2.4,1,2.4,2.11v2.89a5.872,5.872,0,0,0,.07,1h-1.1a3.689,3.689,0,0,1-.06-.78,2.11,2.11,0,0,1-1.86,1,1.79,1.79,0,0,1-1.93-1.85Zm3.75-.92v-.26l-.65.09-1.11.17a.851.851,0,0,0,.09,1.7,1.51,1.51,0,0,0,1.67-1.7Z" transform="translate(-47.57 -15.06)"/><path class="b" d="M1970.84,307.71v-3.17h-1.1v-1h.31a.81.81,0,0,0,.89-.88v-.94h1v1.82h1.25v1H1972v3c0,.53.21.79.8.79a1.93,1.93,0,0,0,.45-.05v1a2.387,2.387,0,0,1-.77.11,1.5,1.5,0,0,1-1.64-1.68Z" transform="translate(-47.57 -15.06)"/><path class="b" d="M1974.31,301.34a.81.81,0,1,1,.8.8A.81.81,0,0,1,1974.31,301.34Zm.25,2.18h1.12v5.77h-1.12Z" transform="translate(-47.57 -15.06)"/><path class="b" d="M1977.12,306.39a2.88,2.88,0,0,1,2.76-3.05,2.691,2.691,0,0,1,2.77,3,2.9,2.9,0,0,1,0,.36h-4.34a1.71,1.71,0,0,0,1.74,1.75,1.57,1.57,0,0,0,1.62-1.17l1,.34a2.61,2.61,0,0,1-2.59,1.82,2.88,2.88,0,0,1-2.96-3.05Zm4.35-.58a1.45,1.45,0,0,0-1.58-1.47,1.54,1.54,0,0,0-1.57,1.47Z" transform="translate(-47.57 -15.06)"/><path class="b" d="M1984.06,303.52h1.11v.83a2.062,2.062,0,0,1,3.84,1.27v3.66h-1.13v-3.46c0-.81-.34-1.46-1.34-1.46s-1.35.71-1.35,1.59v3.33h-1.13Z" transform="translate(-47.57 -15.06)"/><path class="b" d="M1991.17,307.71v-3.17h-1.1v-1h.31a.8.8,0,0,0,.88-.88v-.94h1v1.82h1.24v1h-1.24v3c0,.53.21.79.8.79a1.84,1.84,0,0,0,.44-.05v1a2.261,2.261,0,0,1-.76.11,1.5,1.5,0,0,1-1.57-1.68Z" transform="translate(-47.57 -15.06)"/><path class="b" d="M1994.43,307.79l1-.36a1.23,1.23,0,0,0,1.35,1.08c.63,0,1-.36,1-.77s-.26-.63-.74-.74l-1-.21a1.65,1.65,0,0,1-1.44-1.62,2.186,2.186,0,0,1,4.25-.28l-1,.37a1.11,1.11,0,0,0-1.2-1,.87.87,0,0,0-1,.77c0,.35.22.6.66.7l.94.2a1.75,1.75,0,0,1,1.59,1.71,1.91,1.91,0,0,1-2.11,1.79A2.18,2.18,0,0,1,1994.43,307.79Z" transform="translate(-47.57 -15.06)"/><path class="b" d="M2002.92,307.79l1-.36a1.22,1.22,0,0,0,1.34,1.08c.64,0,1-.36,1-.77s-.26-.63-.74-.74l-1-.21a1.65,1.65,0,0,1-1.44-1.62,2.18,2.18,0,0,1,4.24-.28l-1,.37a1.12,1.12,0,0,0-1.2-1,.87.87,0,0,0-1,.77c0,.35.21.6.66.7l.93.2a1.75,1.75,0,0,1,1.6,1.71,1.92,1.92,0,0,1-2.11,1.79,2.17,2.17,0,0,1-2.28-1.64Z" transform="translate(-47.57 -15.06)"/><path class="b" d="M2008.58,301.34a.81.81,0,1,1,.8.8A.81.81,0,0,1,2008.58,301.34Zm.25,2.18H2010v5.77h-1.12Z" transform="translate(-47.57 -15.06)"/><path class="b" d="M2011.77,303.52h1.08v.77a2,2,0,0,1,1.75-.93,1.79,1.79,0,0,1,1.73,1.09,2.07,2.07,0,0,1,1.93-1.09,2,2,0,0,1,2,2.19v3.74h-1.11v-3.62a1.17,1.17,0,0,0-1.23-1.32,1.34,1.34,0,0,0-1.33,1.45v3.49h-1.13v-3.62a1.16,1.16,0,0,0-1.22-1.32,1.34,1.34,0,0,0-1.34,1.46v3.48h-1.12Z" transform="translate(-47.57 -15.06)"/><path class="b" d="M2022,303.52h1.09v.9a2.14,2.14,0,0,1,1.93-1c1.73,0,2.65,1.33,2.65,3a2.766,2.766,0,0,1-2.68,3.05,2.13,2.13,0,0,1-1.87-.94v3.06H2022Zm4.52,2.88a1.78,1.78,0,0,0-1.7-2,2.05,2.05,0,0,0,0,4.05,1.81,1.81,0,0,0,1.72-2.05Z" transform="translate(-47.57 -15.06)"/><path class="b" d="M2029.15,300.61h1.13v8.68h-1.13Z" transform="translate(-47.57 -15.06)"/><path class="b" d="M2033.91,308.66l-2.48-5.14h1.29l1.8,4,1.73-4h1.21l-3.75,8.18h-1.24Z" transform="translate(-47.57 -15.06)"/><path class="b" d="M1900.11,321.4a2.9,2.9,0,0,1,2.91-3.06,2.5,2.5,0,0,1,2.56,1.84l-1,.43a1.51,1.51,0,0,0-1.54-1.22,1.79,1.79,0,0,0-1.75,2,1.81,1.81,0,0,0,1.76,2,1.58,1.58,0,0,0,1.61-1.19l1,.43a2.64,2.64,0,0,1-2.6,1.8,2.92,2.92,0,0,1-2.95-3.03Z" transform="translate(-47.57 -15.06)"/><path class="b" d="M1906.58,322.74a1.79,1.79,0,0,1,1.75-1.75l1.56-.22a.405.405,0,0,0,.45-.44c0-.56-.38-1-1.25-1a1.23,1.23,0,0,0-1.31,1.17l-1.08-.26a2.23,2.23,0,0,1,2.36-1.87c1.73,0,2.4,1,2.4,2.11v2.89a4.579,4.579,0,0,0,.08,1h-1.11a4.586,4.586,0,0,1-.06-.78,2.1,2.1,0,0,1-1.86,1,1.8,1.8,0,0,1-1.93-1.85Zm3.76-.92v-.26l-.65.09-1.12.17a.86.86,0,0,0-.84.86.87.87,0,0,0,.94.84,1.51,1.51,0,0,0,1.67-1.7Z" transform="translate(-47.57 -15.06)"/><path class="b" d="M1913.24,318.52h1.11v.83a2.057,2.057,0,0,1,3.83,1.27v3.66h-1.12v-3.46c0-.81-.34-1.46-1.35-1.46s-1.34.71-1.34,1.59v3.33h-1.13Z" transform="translate(-47.57 -15.06)"/><path class="b" d="M1920,318.52h1.1v.83a2.062,2.062,0,0,1,3.84,1.27v3.66h-1.13v-3.46c0-.81-.33-1.46-1.34-1.46s-1.34.71-1.34,1.59v3.33H1920Z" transform="translate(-47.57 -15.06)"/><path class="b" d="M1926.27,321.4a3,3,0,1,1,3,3.07,2.91,2.91,0,0,1-3-3.07Zm4.75,0a1.81,1.81,0,1,0-1.8,2.06,1.84,1.84,0,0,0,1.78-2.06Z" transform="translate(-47.57 -15.06)"/><path class="b" d="M1934,322.71v-3.17h-1.11v-1h.31a.8.8,0,0,0,.89-.88v-.94h1v1.82h1.25v1h-1.25v3c0,.53.22.79.81.79a1.9,1.9,0,0,0,.44-.05v1a2.34,2.34,0,0,1-.77.11,1.49,1.49,0,0,1-1.57-1.68Z" transform="translate(-47.57 -15.06)"/><path class="b" d="M1940.33,322.74a1.78,1.78,0,0,1,1.75-1.75l1.56-.22a.4.4,0,0,0,.44-.44c0-.56-.37-1-1.25-1a1.22,1.22,0,0,0-1.3,1.17l-1.08-.26a2.22,2.22,0,0,1,2.36-1.87c1.73,0,2.4,1,2.4,2.11v2.89a5.872,5.872,0,0,0,.07,1h-1.1a3.7,3.7,0,0,1-.06-.78,2.11,2.11,0,0,1-1.86,1,1.79,1.79,0,0,1-1.93-1.85Zm3.75-.92v-.26l-.65.09-1.11.17a.851.851,0,0,0,.09,1.7,1.51,1.51,0,0,0,1.67-1.7Z" transform="translate(-47.57 -15.06)"/><path class="b" d="M1947.39,319.54h-1.06v-1h1.06v-1a1.84,1.84,0,0,1,1.9-2,1.559,1.559,0,0,1,.67.12v1a1.391,1.391,0,0,0-.49-.07.86.86,0,0,0-.91,1v.91h2.62v-1a1.84,1.84,0,0,1,1.9-2,1.561,1.561,0,0,1,.67.12v1a1.39,1.39,0,0,0-.49-.07.86.86,0,0,0-.91,1v.91h1.39v1h-1.39v4.75h-1.17v-4.75h-2.62v4.75h-1.17Z" transform="translate(-47.57 -15.06)"/><path class="b" d="M1954.41,321.4a3,3,0,1,1,2.95,3.07,2.91,2.91,0,0,1-2.95-3.07Zm4.75,0a1.81,1.81,0,1,0-1.8,2.06,1.84,1.84,0,0,0,1.8-2.06Z" transform="translate(-47.57 -15.06)"/><path class="b" d="M1961.76,318.52h1.1v1a1.8,1.8,0,0,1,1.73-1.1,2.58,2.58,0,0,1,.37,0v1.2h-.49c-1,0-1.59.5-1.59,1.77v2.89h-1.12Z" transform="translate(-47.57 -15.06)"/><path class="b" d="M1965.62,321.39a2.84,2.84,0,0,1,2.74-3,1.76,1.76,0,0,1,1.76,1v-3.73h1.11v7.61a9.383,9.383,0,0,0,.06,1.07h-1.09a5.313,5.313,0,0,1-.06-.78v-.09a1.91,1.91,0,0,1-1.78,1,2.79,2.79,0,0,1-2.74-3.08Zm4.51,0c0-1.19-.62-2-1.65-2a1.786,1.786,0,0,0-1.71,2c0,1.16.62,2.06,1.69,2.06s1.67-.9,1.67-2.08Z" transform="translate(-47.57 -15.06)"/><path class="b" d="M1976.31,322.71v-3.17h-1.1v-1h.31a.8.8,0,0,0,.89-.88v-.94h1v1.82h1.25v1h-1.25v3c0,.53.22.79.8.79a1.93,1.93,0,0,0,.45-.05v1a2.39,2.39,0,0,1-.77.11,1.5,1.5,0,0,1-1.58-1.68Z" transform="translate(-47.57 -15.06)"/><path class="b" d="M1980,318.52h1.11v1a1.8,1.8,0,0,1,1.72-1.1,2.625,2.625,0,0,1,.38,0v1.2h-.5c-.94,0-1.58.5-1.58,1.77v2.89H1980Z" transform="translate(-47.57 -15.06)"/><path class="b" d="M1983.9,321.39a2.88,2.88,0,0,1,2.76-3.05,2.69,2.69,0,0,1,2.77,3,2.927,2.927,0,0,1,0,.36h-4.34a1.71,1.71,0,0,0,1.74,1.75,1.57,1.57,0,0,0,1.62-1.17l1,.34a2.61,2.61,0,0,1-2.59,1.82,2.88,2.88,0,0,1-2.96-3.05Zm4.35-.58a1.45,1.45,0,0,0-1.58-1.47,1.55,1.55,0,0,0-1.57,1.47Z" transform="translate(-47.57 -15.06)"/><path class="b" d="M1990.46,322.74a1.79,1.79,0,0,1,1.75-1.75l1.56-.22a.405.405,0,0,0,.45-.44c0-.56-.38-1-1.25-1a1.23,1.23,0,0,0-1.31,1.17l-1.08-.26a2.23,2.23,0,0,1,2.36-1.87c1.73,0,2.4,1,2.4,2.11v2.89a5.885,5.885,0,0,0,.07,1h-1.1a4.6,4.6,0,0,1-.06-.78,2.1,2.1,0,0,1-1.86,1,1.8,1.8,0,0,1-1.93-1.85Zm3.76-.92v-.26l-.65.09-1.12.17a.86.86,0,0,0-.84.86.87.87,0,0,0,.94.84,1.51,1.51,0,0,0,1.67-1.7Z" transform="translate(-47.57 -15.06)"/><path class="b" d="M1997.52,322.71v-3.17h-1.11v-1h.32a.8.8,0,0,0,.88-.88v-.94h1v1.82h1.25v1h-1.25v3c0,.53.22.79.81.79a1.841,1.841,0,0,0,.44-.05v1a2.279,2.279,0,0,1-.77.11,1.49,1.49,0,0,1-1.57-1.68Z" transform="translate(-47.57 -15.06)"/><path class="b" d="M2001.24,318.52h1.08v.77a2,2,0,0,1,1.75-.93,1.78,1.78,0,0,1,1.72,1.09,2.07,2.07,0,0,1,1.94-1.09,2,2,0,0,1,2,2.19v3.74h-1.12v-3.62a1.16,1.16,0,0,0-1.22-1.32,1.34,1.34,0,0,0-1.33,1.45v3.49h-1.13v-3.62a1.16,1.16,0,0,0-1.22-1.32,1.34,1.34,0,0,0-1.35,1.46v3.48h-1.11Z" transform="translate(-47.57 -15.06)"/><path class="b" d="M2011.1,321.39a2.88,2.88,0,0,1,2.76-3.05,2.691,2.691,0,0,1,2.77,3,3.191,3.191,0,0,1,0,.36h-4.35a1.72,1.72,0,0,0,1.74,1.75,1.57,1.57,0,0,0,1.62-1.17l1,.34a2.6,2.6,0,0,1-2.59,1.82,2.88,2.88,0,0,1-2.95-3.05Zm4.35-.58a1.45,1.45,0,0,0-1.58-1.47,1.55,1.55,0,0,0-1.57,1.47Z" transform="translate(-47.57 -15.06)"/><path class="b" d="M2018.05,318.52h1.1v.83a2.062,2.062,0,0,1,3.84,1.27v3.66h-1.13v-3.46c0-.81-.33-1.46-1.34-1.46s-1.34.71-1.34,1.59v3.33h-1.13Z" transform="translate(-47.57 -15.06)"/><path class="b" d="M2025.15,322.71v-3.17h-1.1v-1h.31a.81.81,0,0,0,.89-.88v-.94h1v1.82h1.25v1h-1.25v3c0,.53.22.79.8.79a1.93,1.93,0,0,0,.45-.05v1a2.389,2.389,0,0,1-.77.11,1.5,1.5,0,0,1-1.58-1.68Z" transform="translate(-47.57 -15.06)"/><path class="b" d="M2028.64,323.52a.83.83,0,0,1,.83-.84.84.84,0,0,1,.84.84.835.835,0,1,1-1.67,0Z" transform="translate(-47.57 -15.06)"/></g></g></svg>